<svg xmlns="http://www.w3.org/2000/svg" viewBox="0 -0.5 16 16" shape-rendering="crispEdges">
<metadata>Made with Pixels to Svg https://codepen.io/shshaw/pen/XbxvNj</metadata>
<path stroke="#000000" d="M1 0h1M3 0h1M6 0h2M1 1h1M3 1h1M5 1h2M8 1h1M1 2h1M3 2h1M5 2h2M9 2h1M1 3h1M3 3h1M9 3h1M1 4h1M3 4h1M9 4h1M1 5h1M3 5h1M8 5h1M1 6h1M3 6h1M5 6h4M1 7h1M3 7h3M1 8h1M3 8h3M1 9h1M3 9h1M5 9h4M1 10h1M3 10h1M8 10h1M1 11h1M3 11h1M9 11h1M1 12h1M3 12h1M9 12h1M1 13h1M3 13h1M5 13h2M9 13h1M1 14h1M3 14h1M5 14h2M8 14h1M1 15h1M3 15h1M6 15h2" />
<path stroke="rgba(0,0,0,0.00392156862745098)" d="M6 7h1M6 8h1M4 11h1" />
<path stroke="rgba(0,0,0,0.011764705882352941)" d="M4 10h1M4 12h1" />
<path stroke="rgba(0,0,0,0.023529411764705882)" d="M4 13h1" />
</svg>