<svg xmlns="http://www.w3.org/2000/svg" viewBox="0 0 8 19" shape-rendering="crispEdges">
<metadata>Made with Pixels to Svg https://codepen.io/shshaw/pen/XbxvNj</metadata>
<path stroke="#171717" d="M0 0h1M0 1h1M0 2h1M0 3h1M0 4h1M0 5h1M0 6h1M0 7h1M0 8h1M0 9h1M0 10h1M0 11h1M0 12h1M0 13h1M0 14h1M0 15h1M0 16h1M0 17h1" />
<path stroke="#000000" d="M1 0h4M1 1h4M1 2h4M1 3h4M1 4h4M1 5h4M1 6h4M1 7h4M1 8h4M1 9h4M1 10h4M1 11h4M1 12h4M1 13h4M1 14h4M1 15h4M1 16h4M1 17h4" />
<path stroke="#3c3c3c" d="M5 0h1M5 1h1M5 2h1M5 3h1M5 4h1M5 5h1M5 6h1M5 7h1M5 8h1M5 9h1M5 10h1M5 11h1M5 12h1M5 13h1M5 14h1M5 15h1M5 16h1M5 17h1" />
<path stroke="#323232" d="M1 18h4" />
</svg>