<svg xmlns="http://www.w3.org/2000/svg" viewBox="0 -0.5 8 32" shape-rendering="crispEdges">
<metadata>Made with Pixels to Svg https://codepen.io/shshaw/pen/XbxvNj</metadata>
<path stroke="#332b25" d="M0 0h1M7 0h1M0 1h1M7 1h1M0 2h1M7 2h1M0 3h1M7 3h1M0 4h1M7 4h1M0 5h1M7 5h1M0 6h1M7 6h1M0 7h1M7 7h1M0 8h1M7 8h1M0 9h1M7 9h1M0 10h1M7 10h1M0 11h1M7 11h1M0 12h1M7 12h1M0 13h1M7 13h1M0 14h1M7 14h1M0 15h1M0 16h1M0 17h1M0 18h1M0 19h1M0 20h1M0 21h1M0 22h1M0 23h1M0 24h1M0 25h1M0 26h1M0 27h1M0 28h1M0 29h1M1 30h1M6 30h1M2 31h4" />
<path stroke="#241100" d="M1 0h6M1 1h6M1 2h6M1 3h6M1 4h6M1 5h6M1 6h6M1 7h6M1 8h6M1 9h6M1 10h6M1 11h6M1 12h6M1 13h6M1 14h6M1 15h6M1 16h6M1 17h6M1 18h6M1 19h6M1 20h6M1 21h6M1 22h6M1 23h6M1 24h6M1 25h6M1 26h6M1 27h6M1 28h6M1 29h6M2 30h4" />
<path stroke="#332c25" d="M7 15h1M7 17h1M7 18h1M7 19h1M7 20h1M7 21h1M7 22h1M7 23h1M7 24h1M7 25h1M7 26h1M7 27h1M7 28h1M7 29h1" />
<path stroke="#342c25" d="M7 16h1" />
</svg>