<svg xmlns="http://www.w3.org/2000/svg" viewBox="0 0 8 32" shape-rendering="crispEdges">
<metadata>Made with Pixels to Svg https://codepen.io/shshaw/pen/XbxvNj</metadata>
<path stroke="#fffef3" d="M0 0h7M0 1h7M0 2h7M0 3h7M0 4h7M0 5h7M0 6h7M0 7h7M0 8h7M0 9h7M0 10h7M0 11h7M0 12h7M0 13h7M0 14h7M0 15h7M0 16h7M0 17h7M0 18h7M0 19h7M0 20h7M0 21h7M0 22h7M0 23h7M0 24h7M0 25h7M0 26h7M0 27h7M0 28h7M0 29h7M0 30h7" />
<path stroke="#d3d3d3" d="M7 0h1M7 1h1M7 2h1M7 3h1M7 4h1M7 5h1M7 6h1M7 7h1M7 8h1M7 9h1M7 10h1M7 11h1M7 12h1M7 13h1M7 14h1M7 15h1M7 16h1M7 17h1M7 18h1M7 19h1M7 20h1M7 21h1M7 22h1M7 23h1M7 24h1M7 25h1M7 26h1M7 27h1M7 28h1M7 29h1M7 30h1" />
<path stroke="#737373" d="M0 31h7" />
</svg>