<svg xmlns="http://www.w3.org/2000/svg" viewBox="0 -0.5 16 16" shape-rendering="crispEdges">
<metadata>Made with Pixels to Svg https://codepen.io/shshaw/pen/XbxvNj</metadata>
<path stroke="#000000" d="M6 0h4M6 1h1M9 1h1M5 2h1M10 2h1M5 3h1M10 3h1M5 4h1M10 4h1M5 5h1M10 5h1M4 6h1M11 6h1M4 7h1M11 7h1M4 8h1M11 8h1M3 9h1M12 9h1M3 10h1M12 10h1M3 11h1M12 11h1M3 12h1M12 12h1M3 13h1M12 13h1M3 14h10" />
<path stroke="#917708" d="M7 1h2M7 2h2M7 3h2M7 4h2M7 5h2M7 6h2M7 7h2M7 8h2" />
<path stroke="#824618" d="M6 2h1M9 2h1M6 3h1M9 3h1M6 4h1M9 4h1M6 5h1M9 5h1M5 6h2M9 6h2M5 7h2M9 7h2M5 8h2M9 8h2" />
<path stroke="#692e00" d="M4 9h8M4 10h8M4 11h8M4 12h8M4 13h8" />
</svg>