<REAPER_PROJECT 0.1 "6.78/OSX64-clang" 1682371065
  <NOTES 0 2
  >
  RIPPLE 0
  GROUPOVERRIDE 0 0 0
  AUTOXFADE 129
  ENVATTACH 3
  POOLEDENVATTACH 0
  MIXERUIFLAGS 11 48
  PEAKGAIN 1
  FEEDBACK 0
  PANLAW 1
  PROJOFFS 0 0 0
  MAXPROJLEN 0 0
  GRID 3199 8 1 8 1 0 0 0
  TIMEMODE 1 5 -1 30 0 0 -1
  VIDEO_CONFIG 0 0 256
  PANMODE 3
  CURSOR 0
  ZOOM 6.93229859896527 0 0
  VZOOMEX 4.78423166 0
  USE_REC_CFG 0
  RECMODE 1
  SMPTESYNC 0 30 100 40 1000 300 0 0 1 0 0
  LOOP 1
  LOOPGRAN 0 4
  RECORD_PATH "" ""
  <RECORD_CFG
    ZXZhdxgAAQ==
  >
  <APPLYFX_CFG
  >
  RENDER_FILE "/Users/damian/Documents/Github/snake_ed/public/Songs/jazzy.mp3"
  RENDER_FMT 0 2 44100
  RENDER_1X 0
  RENDER_RANGE 1 0 0 16 1000
  RENDER_RESAMPLE 3 0 1
  RENDER_ADDTOPROJ 0
  RENDER_STEMS 0
  RENDER_DITHER 0
  TIMELOCKMODE 1
  TEMPOENVLOCKMODE 1
  ITEMMIX 1
  DEFPITCHMODE 589824 0
  TAKELANE 1
  SAMPLERATE 44100 0 0
  <RENDER_CFG
    bDNwbSAAAAAAAAAAAgAAAAQAAAAEAAAAQAEAAGAAAAA=
  >
  LOCK 1
  <METRONOME 6 2
    VOL 0.25 0.125
    FREQ 800 1600 1
    BEATLEN 4
    SAMPLES "" ""
    PATTERN 2863311530 2863311529
    MULT 1
  >
  GLOBAL_AUTO -1
  TEMPO 120 4 4
  PLAYRATE 1 0 0.25 4
  SELECTION 116.571312 0
  SELECTION2 116.571312 0
  MASTERAUTOMODE 0
  MASTERTRACKHEIGHT 0 0
  MASTERPEAKCOL 16576
  MASTERMUTESOLO 0
  MASTERTRACKVIEW 0 0.6667 0.5 0.5 0 0 0 0 0 0 0 0 0
  MASTERHWOUT 0 0 1 0 0 0 0 -1
  MASTER_NCH 2 2
  MASTER_VOLUME 1 0 -1 -1 1
  MASTER_PANMODE 3
  MASTER_FX 1
  MASTER_SEL 0
  <MASTERFXLIST
    WNDRECT 510 56 793 333
    SHOW 0
    LASTSEL 0
    DOCKED 0
    BYPASS 0 0 0
    <JS remaincalm_org/paranoia_mangler ""
      5 -6 -12 16661.718333 1 0 8 0 - - - - 100 41 1 - - - - - - - - - - - - - - - - - - - - - - - - - - - - - - - - - - - - - - - - - - - - - - - - - 
    >
    FLOATPOS 0 0 0 0
    FXID {BF0B2CBA-1079-BE4C-A240-0097944E84DC}
    WAK 0 0
  >
  <MASTERPLAYSPEEDENV
    EGUID {8BBD9C7E-5393-DA42-A4E4-3FBBEE4DF73B}
    ACT 0 -1
    VIS 0 1 1
    LANEHEIGHT 0 0
    ARM 0
    DEFSHAPE 0 -1 -1
  >
  <TEMPOENVEX
    EGUID {C8816566-1F99-A54A-8F06-5F8B87D96108}
    ACT 1 -1
    VIS 1 0 1
    LANEHEIGHT 0 0
    ARM 0
    DEFSHAPE 1 -1 -1
    PT 0.000000000000 70.0000700001 1 262148 0 1
  >
  <PROJBAY
  >
  <TRACK {AA849E96-5C99-5849-A1E0-2E8E906530DA}
    NAME drums
    PEAKCOL 16576
    BEAT -1
    AUTOMODE 0
    VOLPAN 0.64382266579432 0 -1 -1 1
    MUTESOLO 0 0 0
    IPHASE 0
    PLAYOFFS 0 1
    ISBUS 0 0
    BUSCOMP 0 0 0 0 0
    SHOWINMIX 1 0.6667 0.5 1 0.5 0 0 0
    SEL 0
    REC 0 0 1 0 0 0 0 0
    VU 2
    TRACKHEIGHT 0 0 0 0 0 0
    INQ 0 0 0 0.5 100 0 0 100
    NCHAN 4
    FX 1
    TRACKID {AA849E96-5C99-5849-A1E0-2E8E906530DA}
    PERF 0
    MIDIOUT -1
    MAINSEND 1 0
    <FXCHAIN
      WNDRECT 1047 107 808 615
      SHOW 0
      LASTSEL 5
      DOCKED 0
      BYPASS 0 0 0
      <VST "VSTi: ReaSamplOmatic5000 (Cockos)" reasamplomatic.vst.dylib 0 "" 1920167789<56535472736F6D72656173616D706C6F> ""
        bW9zcu5e7f4AAAAAAgAAAAEAAAAAAAAAAgAAAAAAAABQAQAAAQAAAAAAEAA=
        L1VzZXJzL2RhbWlhbi9Eb2N1bWVudHMvR2l0aHViL3NuYWtlX2VkL3B1YmxpYy9Tb3VuZHMvc25hcmU4Yml0LndhdgAAAADgugP0PwAAAAAAAOA/AAAAoIlt3j/KZDKZ
        TCbTP8pkMplMJtM/AAAAAAAA4D/NzMzMzMzrPwAAAAAAAAAAHMdxHMdx3D9aREwAlfBYP/yp8dJNYkA/AAAAAAAAAAAAAAAAAAAAAPh3b9YTZas/AAAAAAAA8D8AAAAA
        AADgPwEAAAAAAAAAAAAAAAAAAAAAAPA/QAAAAHNoke18P8U/AQAAAAgEAoFAIIA/AAAAAAAA8D8AAAAAAADwPwAAAAAAAAAAAAAAAAAAAAAAAAAAAAAAAAAAAAAAAAAA
        zqQhIRplkD8AAAAAAADwP/yp8dJNYjA/AAAAAAAAAAAAAAAAAAAAAAAAAAAAAAAA
        AFByb2dyYW0gMQAQAAAA
      >
      FLOATPOS 981 83 569 587
      FXID {E23F3DEC-ACC7-ED4F-9030-587062D97B35}
      WAK 0 0
      BYPASS 0 0 0
      <VST "VSTi: ReaSamplOmatic5000 (Cockos)" reasamplomatic.vst.dylib 0 "" 1920167789<56535472736F6D72656173616D706C6F> ""
        bW9zcu5e7f4AAAAAAgAAAAEAAAAAAAAAAgAAAAAAAABPAQAAAQAAAAAAEAA=
        L1VzZXJzL2RhbWlhbi9Eb2N1bWVudHMvR2l0aHViL3NuYWtlX2VkL3B1YmxpYy9Tb3VuZHMva2ljazhiaXQud2F2AAAAAAAAAPA/AAAAAAAA4D8AAACgiW3eP4lEIpFI
        JNI/iUQikUgk0j8AAAAAAADgP83MzMzMzOs/AAAAAAAAAAAcx3Ecx3HcP2rr2oKqk2I//Knx0k1iQD8AAAAAAAAAAAAAAAAAAAAAtK9aYMbysT8AAAAAAADwPwAAAAAA
        AOA/AQAAAAAAAAAAAAAAAAAAAAAA8D9AAAAAc2iR7Xw/xT8BAAAACAQCgUAggD8AAAAAAADwPwAAAAAAAPA/AAAAAAAAAAAAAAAAAAAAAAAAAAAAAAAAAAAAAAAAAADO
        pCEhGmWQPwAAAAAAAPA//Knx0k1iMD8AAAAAAAAAAAAAAAAAAAAAAAAAAAAAAAA=
        AFByb2dyYW0gMQAQAAAA
      >
      FLOATPOS 0 0 0 0
      FXID {EA872E48-75D7-CA41-835D-BFE40F21C627}
      WAK 0 0
      BYPASS 0 0 0
      <VST "VSTi: ReaSamplOmatic5000 (Cockos)" reasamplomatic.vst.dylib 0 "" 1920167789<56535472736F6D72656173616D706C6F> ""
        bW9zcu5e7f4AAAAAAgAAAAEAAAAAAAAAAgAAAAAAAABPAQAAAQAAAAAAEAA=
        L1VzZXJzL2RhbWlhbi9Eb2N1bWVudHMvR2l0aHViL3NuYWtlX2VkL3B1YmxpYy9Tb3VuZHMvaGF0OGJpdDEud2F2AAAAAAAAAPA/AAAAAAAA4D8AAAAAAADwP0ulUqlU
        KtU/S6VSqVQq1T+amZmZmZmxP83MzMzMzOs/AAAAAAAAAAAcx3Ecx3HcP7/rsvm7xFU//Knx0k1iQD8AAAAAAAAAAAAAAAAAAAAA1hNlG+2rpj8AAAAAAADwPwAAAAAA
        AOA/AQAAAAAAAAAAAAAAAAAAAAAA8D9AAAAAVVVVVVVVxT//////CAQCgUAggD8AAAAAAADwPwAAAAAAAPA/AAAAAAAAAAAAAAAAAAAAAAAAAAAAAAAAAAAAAAAAAADO
        pCEhGmWQPwAAAAAAAPA//Knx0k1iMD8AAAAAAAAAAAAAAAAAAAAAAAAAAAAAAAA=
        AFByb2dyYW0gMQAQAAAA
      >
      FLOATPOS 0 0 0 0
      FXID {EFBBFF8E-EF62-B84D-B276-08FBDD9DBA7E}
      WAK 0 0
      BYPASS 0 0 0
      <VST "VSTi: ReaSamplOmatic5000 (Cockos)" reasamplomatic.vst.dylib 0 "" 1920167789<56535472736F6D72656173616D706C6F> ""
        bW9zcu5e7f4AAAAAAgAAAAEAAAAAAAAAAgAAAAAAAABQAQAAAQAAAAAAEAA=
        L1VzZXJzL2RhbWlhbi9Eb2N1bWVudHMvR2l0aHViL3NuYWtlX2VkL3B1YmxpYy9Tb3VuZHMvamF6ei1yaWRlLndhdgAAAADg1w7nPwAAAAAAAOA/AAAAAAAA8D9tNpvN
        ZrPZP202m81ms9k/mpmZmZmZsT/NzMzMzMzrPwAAAAAAAAAAHMdxHMdx3D/8qfHSTWJAP5I6HiBCptA/AAAAAAAAAAAAAAAAAAAAAAAAAAAAAAAAAAAAAAAA8D8AAAAA
        AADgPwEAAAAAAAAAAAAAAAAAAAAAAPA/QAAAAFVVVVVVVcU/AQAAAAgEAoFAIIA/AAAAAAAA8D8AAAAAAADwPwAAAAAAAAAAAAAAAAAAAAAAAAAAAAAAAJ4g1v6N4Xw/
        mUshLJJilz8AAAAA1qD2P/yp8dJNYjA/AAAAAAAAAAAAAAAAAAAAAAAAAAAAAAAA
        AFByb2dyYW0gMQAQAAAA
      >
      FLOATPOS 0 0 0 0
      FXID {B75ABDDD-7B5F-0D43-B7C6-2F8E8A2C735B}
      WAK 0 0
      BYPASS 0 0 0
      <VST "VSTi: ReaSamplOmatic5000 (Cockos)" reasamplomatic.vst.dylib 0 "" 1920167789<56535472736F6D72656173616D706C6F> ""
        bW9zcu5e7f4AAAAAAgAAAAEAAAAAAAAAAgAAAAAAAABRAQAAAQAAAAAAEAA=
        L1VzZXJzL2RhbWlhbi9Eb2N1bWVudHMvR2l0aHViL3NuYWtlX2VkL3B1YmxpYy9Tb3VuZHMvOGJpdF9zdGljay53YXYAAAAAgKIn+T8AAAAAAADgPwAAAAAAAPA/qVQq
        lUql0j+pVCqVSqXSP5qZmZmZmbE/zczMzMzM6z8AAAAAAAAAABzHcRzHcdw//Knx0k1iQD/8qfHSTWJAPwAAAAAAAAAAAAAAAAAAAAAAAAAAAAAAAAAAAAAAAPA/AAAA
        AAAA4D8BAAAAAAAAAAAAAAAAAAAAAADwP0AAAABVVVVVVVXFP/////8IBAKBQCCAPwAAAAAAAPA/AAAAAAAA8D8AAAAAAAAAAAAAAAAAAAAAAAAAAAAAAAAAAAAAAAAA
        AM6kISEaZZA/AAAAAAAA8D/8qfHSTWIwPwAAAAAAAAAAAAAAAAAAAAAAAAAAAAAAAA==
        AFByb2dyYW0gMQAQAAAA
      >
      FLOATPOS 0 0 0 0
      FXID {0AA8E3EB-A9DB-4243-A42F-56D1BCB82771}
      WAK 0 0
      BYPASS 0 0 0
      <VST "VSTi: ReaSamplOmatic5000 (Cockos)" reasamplomatic.vst.dylib 0 "" 1920167789<56535472736F6D72656173616D706C6F> ""
        bW9zcu5e7f4AAAAAAgAAAAEAAAAAAAAAAgAAAAAAAABYAQAAAQAAAAAAEAA=
        L1VzZXJzL2RhbWlhbi9Eb2N1bWVudHMvR2l0aHViL3NuYWtlX2VkL3B1YmxpYy9Tb3VuZHMvb3Blbi1taXhlZC1oaS1oYXQud2F2AAAAACBMfOQ/AAAAAAAA4D8AAAAA
        AADwP8zlcrlcLtc/zOVyuVwu1z+amZmZmZmxP83MzMzMzOs/AAAAAAAAAAAcx3Ecx3HcP/yp8dJNYkA//Knx0k1iQD8AAAAAAAAAAAAAAAAAAAAAAAAAAAAAAAAAAAAA
        AADwPwAAAAAAAOA/AQAAAAAAAAAAAAAAAAAAAAAA8D9AAAAAVVVVVVVVxT//////CAQCgUAggD8AAAAAAADwPwAAAAAAAPA/AAAAAAAAAAAAAAAAAAAAAAAAAAAAAAAA
        AAAAAAAAAADOpCEhGmWQPwAAAAAAAPA//Knx0k1iMD8AAAAAAAAAAAAAAAAAAAAAAAAAAAAAAAA=
        AFByb2dyYW0gMQAQAAAA
      >
      FLOATPOS 0 0 0 0
      FXID {40F9C2FA-CD56-594D-8243-2B747D7DFD7D}
      WAK 0 0
    >
  >
  <TRACK {1B184DD1-5836-1745-B2AA-1324CC751E14}
    NAME harmo1
    PEAKCOL 16576
    BEAT -1
    AUTOMODE 0
    VOLPAN 1 0 -1 -1 1
    MUTESOLO 0 0 0
    IPHASE 0
    PLAYOFFS 0 1
    ISBUS 0 0
    BUSCOMP 0 0 0 0 0
    SHOWINMIX 1 0.6667 0.5 1 0.5 0 0 0
    SEL 0
    REC 0 0 1 0 0 0 0 0
    VU 2
    TRACKHEIGHT 0 0 0 0 0 0
    INQ 0 0 0 0.5 100 0 0 100
    NCHAN 2
    FX 1
    TRACKID {1B184DD1-5836-1745-B2AA-1324CC751E14}
    PERF 0
    MIDIOUT -1
    MAINSEND 1 0
    <FXCHAIN
      WNDRECT 442 81 611 488
      SHOW 0
      LASTSEL 0
      DOCKED 0
      BYPASS 0 0 0
      <VST "VSTi: ReaSynth (Cockos)" reasynth.vst.dylib 0 "" 1919251321<5653547265737972656173796E746800> ""
        eXNlcu9e7f4AAAAAAgAAAAEAAAAAAAAAAgAAAAAAAABEAAAAAAAAAAAAEAA=
        776t3g3wrd66uwU9p2uCPc/3kz5okW0+AACAP6xCFz/P9D080SLbPQAAgD88Axk/AACAPzeJAT8AAIA/AAAAAAAAAAA=
        AAAQAAAA
      >
      FLOATPOS 0 0 0 0
      FXID {7AA84F75-DF3B-9342-98DF-1E44B31C7E3C}
      WAK 0 0
    >
    <ITEM
      POSITION 0
      SNAPOFFS 0
      LENGTH 116.571312
      LOOP 1
      ALLTAKES 0
      FADEIN 1 0 0 1 0 0 0
      FADEOUT 1 0 0 1 0 0 0
      MUTE 0 0
      SEL 0
      IGUID {89FD7908-0C59-CA4C-8DB1-4B207044D9E5}
      IID 30
      NAME "Violin 1 - nn.mid"
      VOLPAN 1 0 1 -1
      SOFFS 0 0
      PLAYRATE 1 1 0 -1 0 0.0025
      CHANMODE 0
      GUID {C25BED37-A4C6-684A-AAC9-3C90152D2616}
      <SOURCE MIDI
        HASDATA 1 960 QN
        CCINTERP 32
        POOLEDEVTS {C10477D5-6EA3-A943-86C6-08F70B1F965C}
        E 0 c0 30 00
        E 0 b0 40 00
        E 0 b0 5b 30
        E 0 b0 0a 10
        E 0 b0 07 68
        E 0 90 44 59
        E 0 b0 79 00
        E 960 90 46 55
        E 19 80 44 00
        E 941 90 48 59
        E 19 80 46 00
        E 941 90 46 53
        E 19 80 48 00
        E 892 80 46 00
        E 49 90 44 57
        E 960 80 44 00
        E 0 90 46 55
        E 960 80 46 00
        E 0 90 48 59
        E 960 80 48 00
        E 0 90 4a 55
        E 960 80 4a 00
        E 0 90 4b 5a
        E 960 80 4b 00
        E 0 90 4b 54
        E 960 80 4b 00
        E 0 90 4d 58
        E 960 80 4d 00
        E 0 90 4d 54
        E 960 80 4d 00
        E 0 90 4a 57
        E 960 80 4a 00
        E 0 90 4a 53
        E 960 80 4a 00
        E 0 90 46 59
        E 0 90 4d 59
        E 960 80 46 00
        E 0 80 4d 00
        E 0 90 45 54
        E 0 90 4d 54
        E 960 80 45 00
        E 0 80 4d 00
        E 0 90 4f 5a
        E 75 80 4f 00
        E 23 90 50 5a
        E 75 80 50 00
        E 22 90 4f 5a
        E 75 80 4f 00
        E 23 90 50 5a
        E 75 80 50 00
        E 18 90 4f 5a
        E 75 80 4f 00
        E 19 90 50 5a
        E 75 80 50 00
        E 19 90 4f 5a
        E 75 80 4f 00
        E 19 90 50 5a
        E 75 80 50 00
        E 18 90 4f 5a
        E 75 80 4f 00
        E 15 90 50 5a
        E 72 80 50 00
        E 18 90 4f 5a
        E 72 80 4f 00
        E 18 90 50 5a
        E 72 80 50 00
        E 18 90 4f 5a
        E 72 80 4f 00
        E 15 90 50 5a
        E 67 80 50 00
        E 19 90 4f 5a
        E 67 80 4f 00
        E 19 90 50 5a
        E 68 80 50 00
        E 18 90 4f 5a
        E 68 80 4f 00
        E 15 90 50 5a
        E 64 80 50 00
        E 18 90 4f 5a
        E 64 80 4f 00
        E 19 90 50 5a
        E 64 80 50 00
        E 18 90 4f 5a
        E 64 80 4f 00
        E 19 90 50 5a
        E 64 80 50 00
        E 15 90 4f 5a
        E 60 80 4f 00
        E 18 90 50 5a
        E 60 80 50 00
        E 19 90 4f 5a
        E 60 80 4f 00
        E 19 90 50 5a
        E 60 80 50 00
        E 19 90 4f 5a
        E 60 80 4f 00
        E 22 90 50 5a
        E 64 80 50 00
        E 19 90 4f 5a
        E 63 80 4f 00
        E 19 90 50 5a
        E 64 80 50 00
        E 19 90 4f 5a
        E 63 80 4f 00
        E 19 90 50 5a
        E 64 80 50 00
        E 22 90 4f 5a
        E 68 80 4f 00
        E 19 90 50 5a
        E 67 80 50 00
        E 19 90 4f 5a
        E 67 80 4f 00
        E 19 90 50 5a
        E 68 80 50 00
        E 22 90 4f 5a
        E 71 80 4f 00
        E 19 90 50 5a
        E 71 80 50 00
        E 19 90 4f 5a
        E 71 80 4f 00
        E 19 90 50 5a
        E 71 80 50 00
        E 23 90 4f 5a
        E 75 80 4f 00
        E 19 90 50 5a
        E 75 80 50 00
        E 18 90 4f 5a
        E 75 80 4f 00
        E 19 90 50 5a
        E 71 80 50 00
        E 4 90 4d 59
        E 75 80 4d 00
        E 23 90 4f 59
        E 75 80 4f 00
        E 22 90 4d 59
        E 75 80 4d 00
        E 23 90 4f 59
        E 75 80 4f 00
        E 18 90 4d 59
        E 75 80 4d 00
        E 19 90 4f 59
        E 75 80 4f 00
        E 19 90 4d 59
        E 75 80 4d 00
        E 19 90 4f 59
        E 75 80 4f 00
        E 18 90 4d 59
        E 75 80 4d 00
        E 15 90 4f 59
        E 72 80 4f 00
        E 18 90 4d 59
        E 72 80 4d 00
        E 18 90 4f 59
        E 72 80 4f 00
        E 18 90 4d 59
        E 72 80 4d 00
        E 15 90 4f 59
        E 67 80 4f 00
        E 19 90 4d 59
        E 67 80 4d 00
        E 19 90 4f 59
        E 68 80 4f 00
        E 18 90 4d 59
        E 68 80 4d 00
        E 15 90 4f 59
        E 64 80 4f 00
        E 18 90 4d 59
        E 64 80 4d 00
        E 19 90 4f 59
        E 64 80 4f 00
        E 18 90 4d 59
        E 64 80 4d 00
        E 19 90 4f 59
        E 64 80 4f 00
        E 15 90 4d 59
        E 60 80 4d 00
        E 18 90 4f 59
        E 60 80 4f 00
        E 19 90 4d 59
        E 60 80 4d 00
        E 19 90 4f 59
        E 60 80 4f 00
        E 19 90 4d 59
        E 60 80 4d 00
        E 22 90 4f 59
        E 64 80 4f 00
        E 19 90 4d 59
        E 63 80 4d 00
        E 19 90 4f 59
        E 64 80 4f 00
        E 19 90 4d 59
        E 63 80 4d 00
        E 19 90 4f 59
        E 64 80 4f 00
        E 22 90 4d 59
        E 68 80 4d 00
        E 19 90 4f 59
        E 67 80 4f 00
        E 19 90 4d 59
        E 67 80 4d 00
        E 19 90 4f 59
        E 68 80 4f 00
        E 22 90 4d 59
        E 71 80 4d 00
        E 19 90 4f 59
        E 71 80 4f 00
        E 19 90 4d 59
        E 71 80 4d 00
        E 19 90 4f 59
        E 71 80 4f 00
        E 23 90 4d 59
        E 75 80 4d 00
        E 19 90 4f 59
        E 75 80 4f 00
        E 18 90 4d 59
        E 75 80 4d 00
        E 19 90 4f 59
        E 71 80 4f 00
        E 4 90 4b 59
        E 75 80 4b 00
        E 23 90 4d 59
        E 75 80 4d 00
        E 22 90 4b 59
        E 75 80 4b 00
        E 23 90 4d 59
        E 75 80 4d 00
        E 18 90 4b 59
        E 75 80 4b 00
        E 19 90 4d 59
        E 75 80 4d 00
        E 19 90 4b 59
        E 75 80 4b 00
        E 19 90 4d 59
        E 75 80 4d 00
        E 18 90 4b 59
        E 75 80 4b 00
        E 15 90 4d 59
        E 72 80 4d 00
        E 18 90 4b 59
        E 72 80 4b 00
        E 18 90 4d 59
        E 72 80 4d 00
        E 18 90 4b 59
        E 72 80 4b 00
        E 15 90 4d 59
        E 67 80 4d 00
        E 19 90 4b 59
        E 67 80 4b 00
        E 19 90 4d 59
        E 68 80 4d 00
        E 18 90 4b 59
        E 68 80 4b 00
        E 15 90 4d 59
        E 64 80 4d 00
        E 18 90 4b 59
        E 64 80 4b 00
        E 19 90 4d 59
        E 64 80 4d 00
        E 18 90 4b 59
        E 64 80 4b 00
        E 19 90 4d 59
        E 64 80 4d 00
        E 15 90 4b 59
        E 60 80 4b 00
        E 18 90 4d 59
        E 60 80 4d 00
        E 19 90 4b 59
        E 60 80 4b 00
        E 19 90 4d 59
        E 60 80 4d 00
        E 19 90 4b 59
        E 60 80 4b 00
        E 22 90 4d 59
        E 64 80 4d 00
        E 19 90 4b 59
        E 63 80 4b 00
        E 19 90 4d 59
        E 64 80 4d 00
        E 19 90 4b 59
        E 63 80 4b 00
        E 19 90 4d 59
        E 64 80 4d 00
        E 22 90 4b 59
        E 68 80 4b 00
        E 19 90 4d 59
        E 67 80 4d 00
        E 19 90 4b 59
        E 67 80 4b 00
        E 19 90 4d 59
        E 68 80 4d 00
        E 22 90 4b 59
        E 71 80 4b 00
        E 19 90 4d 59
        E 71 80 4d 00
        E 19 90 4b 59
        E 71 80 4b 00
        E 19 90 4d 59
        E 71 80 4d 00
        E 23 90 4b 59
        E 75 80 4b 00
        E 19 90 4d 59
        E 75 80 4d 00
        E 18 90 4b 59
        E 75 80 4b 00
        E 19 90 4d 59
        E 71 80 4d 00
        E 4 90 4f 59
        E 75 80 4f 00
        E 23 90 50 59
        E 75 80 50 00
        E 22 90 4f 59
        E 75 80 4f 00
        E 23 90 50 59
        E 75 80 50 00
        E 18 90 4f 59
        E 75 80 4f 00
        E 19 90 50 59
        E 75 80 50 00
        E 19 90 4f 59
        E 75 80 4f 00
        E 19 90 50 59
        E 75 80 50 00
        E 18 90 4f 59
        E 75 80 4f 00
        E 15 90 50 59
        E 72 80 50 00
        E 18 90 4f 59
        E 72 80 4f 00
        E 18 90 50 59
        E 72 80 50 00
        E 18 90 4f 59
        E 72 80 4f 00
        E 15 90 50 59
        E 67 80 50 00
        E 19 90 4f 59
        E 67 80 4f 00
        E 19 90 50 59
        E 68 80 50 00
        E 18 90 4f 59
        E 68 80 4f 00
        E 15 90 50 59
        E 64 80 50 00
        E 18 90 4f 59
        E 64 80 4f 00
        E 19 90 50 59
        E 64 80 50 00
        E 18 90 4f 59
        E 64 80 4f 00
        E 19 90 50 59
        E 64 80 50 00
        E 15 90 4f 59
        E 60 80 4f 00
        E 18 90 50 59
        E 60 80 50 00
        E 19 90 4f 59
        E 60 80 4f 00
        E 19 90 50 59
        E 60 80 50 00
        E 19 90 4f 59
        E 60 80 4f 00
        E 22 90 50 59
        E 64 80 50 00
        E 19 90 4f 59
        E 63 80 4f 00
        E 19 90 50 59
        E 64 80 50 00
        E 19 90 4f 59
        E 63 80 4f 00
        E 19 90 50 59
        E 64 80 50 00
        E 22 90 4f 59
        E 68 80 4f 00
        E 19 90 50 59
        E 67 80 50 00
        E 19 90 4f 59
        E 67 80 4f 00
        E 19 90 50 59
        E 68 80 50 00
        E 22 90 4f 59
        E 71 80 4f 00
        E 19 90 50 59
        E 71 80 50 00
        E 19 90 4f 59
        E 71 80 4f 00
        E 19 90 50 59
        E 71 80 50 00
        E 23 90 4f 59
        E 75 80 4f 00
        E 19 90 50 59
        E 75 80 50 00
        E 18 90 4f 59
        E 75 80 4f 00
        E 19 90 50 59
        E 71 80 50 00
        E 4 90 44 68
        E 960 90 46 63
        E 19 80 44 00
        E 941 90 48 67
        E 19 80 46 00
        E 941 90 46 61
        E 19 80 48 00
        E 892 80 46 00
        E 49 90 44 66
        E 960 80 44 00
        E 0 90 46 63
        E 960 80 46 00
        E 0 90 48 67
        E 960 80 48 00
        E 0 90 4a 63
        E 960 80 4a 00
        E 0 90 4d 6a
        E 480 80 4d 00
        E 0 90 4b 61
        E 240 80 4b 00
        E 0 90 4a 5f
        E 240 80 4a 00
        E 0 90 48 5c
        E 240 80 48 00
        E 0 90 46 58
        E 240 80 46 00
        E 0 90 48 5f
        E 240 80 48 00
        E 0 90 4a 66
        E 240 80 4a 00
        E 0 90 4d 75
        E 0 90 50 75
        E 1920 80 4d 00
        E 0 80 50 00
        E 0 90 4f 69
        E 1920 80 4f 00
        E 0 90 50 66
        E 240 90 4a 5a
        E 4 80 50 00
        E 236 90 4f 5f
        E 4 80 4a 00
        E 236 90 48 4e
        E 4 80 4f 00
        E 221 80 48 00
        E 15 90 4d 57
        E 120 80 4d 00
        E 120 90 46 48
        E 120 80 46 00
        E 120 90 4b 4e
        E 240 90 4a 49
        E 4 80 4b 00
        E 236 90 44 40
        E 900 80 4a 00
        E 60 90 46 4a
        E 0 90 4b 4a
        E 19 80 44 00
        E 941 80 4b 00
        E 0 90 48 4b
        E 0 90 4b 4b
        E 19 80 46 00
        E 941 90 46 48
        E 0 90 4d 48
        E 19 80 48 00
        E 0 80 4b 00
        E 892 80 46 00
        E 0 80 4d 00
        E 49 90 4f 4d
        E 960 80 4f 00
        E 0 90 4d 46
        E 960 80 4d 00
        E 0 90 4b 49
        E 480 80 4b 00
        E 0 90 4a 46
        E 480 80 4a 00
        E 0 90 4a 61
        E 960 80 4a 00
        E 0 90 4b 68
        E 960 80 4b 00
        E 0 90 4d 63
        E 480 80 4d 00
        E 0 90 4b 61
        E 480 80 4b 00
        E 0 90 4d 6b
        E 0 90 50 6b
        E 1920 80 4d 00
        E 1920 80 50 00
        E 0 90 4f 66
        E 120 80 4f 00
        E 0 90 4d 5d
        E 120 80 4d 00
        E 0 90 4b 56
        E 120 80 4b 00
        E 0 90 4a 51
        E 120 80 4a 00
        E 0 90 48 4a
        E 120 80 48 00
        E 0 90 46 44
        E 120 80 46 00
        E 0 90 44 3e
        E 120 80 44 00
        E 0 90 43 39
        E 120 80 43 00
        E 0 90 42 3f
        E 480 80 42 00
        E 0 90 43 37
        E 480 80 43 00
        E 0 90 44 64
        E 960 90 46 64
        E 19 80 44 00
        E 941 90 48 68
        E 19 80 46 00
        E 941 90 46 61
        E 19 80 48 00
        E 892 80 46 00
        E 49 90 44 66
        E 960 80 44 00
        E 0 90 46 63
        E 960 80 46 00
        E 0 90 48 67
        E 960 80 48 00
        E 0 90 4a 63
        E 960 80 4a 00
        E 0 90 4d 6a
        E 480 80 4d 00
        E 0 90 4b 61
        E 240 80 4b 00
        E 0 90 4a 5f
        E 240 80 4a 00
        E 0 90 48 5c
        E 240 80 48 00
        E 0 90 46 58
        E 240 80 46 00
        E 0 90 48 5f
        E 240 80 48 00
        E 0 90 4a 66
        E 240 80 4a 00
        E 0 90 4d 75
        E 0 90 50 75
        E 1920 80 4d 00
        E 0 80 50 00
        E 0 90 4f 69
        E 1920 80 4f 00
        E 0 90 50 66
        E 240 90 4a 5a
        E 4 80 50 00
        E 236 90 4f 5f
        E 4 80 4a 00
        E 236 90 48 4e
        E 4 80 4f 00
        E 221 80 48 00
        E 15 90 4d 57
        E 120 80 4d 00
        E 120 90 46 48
        E 120 80 46 00
        E 120 90 4b 4e
        E 240 90 4a 49
        E 4 80 4b 00
        E 236 90 44 40
        E 900 80 4a 00
        E 60 90 46 4a
        E 0 90 4b 4a
        E 19 80 44 00
        E 941 80 4b 00
        E 0 90 48 4b
        E 0 90 4b 4b
        E 19 80 46 00
        E 941 90 46 48
        E 0 90 4d 48
        E 19 80 48 00
        E 0 80 4b 00
        E 892 80 46 00
        E 0 80 4d 00
        E 49 90 4f 4d
        E 960 80 4f 00
        E 0 90 4d 46
        E 960 80 4d 00
        E 0 90 4b 49
        E 480 80 4b 00
        E 0 90 4a 46
        E 480 80 4a 00
        E 0 90 4a 61
        E 960 80 4a 00
        E 0 90 4b 68
        E 960 80 4b 00
        E 0 90 4d 63
        E 480 80 4d 00
        E 0 90 4b 61
        E 480 80 4b 00
        E 0 90 4d 6b
        E 0 90 50 6b
        E 1920 80 4d 00
        E 1920 80 50 00
        E 0 90 4f 66
        E 120 80 4f 00
        E 0 90 4d 5d
        E 120 80 4d 00
        E 0 90 4b 56
        E 120 80 4b 00
        E 0 90 4a 51
        E 120 80 4a 00
        E 0 90 48 4a
        E 120 80 48 00
        E 0 90 46 44
        E 120 80 46 00
        E 0 90 44 3e
        E 120 80 44 00
        E 0 90 43 39
        E 120 80 43 00
        E 0 90 42 3f
        E 480 80 42 00
        E 0 90 43 37
        E 480 80 43 00
        E 0 90 44 3f
        E 1440 80 44 00
        E 0 90 43 3d
        E 480 80 43 00
        E 0 90 46 41
        E 1440 80 46 00
        E 0 90 48 3e
        E 480 80 48 00
        E 0 90 44 3f
        E 1440 80 44 00
        E 0 90 46 3d
        E 480 80 46 00
        E 0 90 48 41
        E 1440 80 48 00
        E 0 90 4a 3e
        E 480 80 4a 00
        E 0 90 4b 42
        E 720 80 4b 00
        E 0 90 4d 42
        E 240 80 4d 00
        E 0 90 4f 42
        E 720 80 4f 00
        E 0 90 50 43
        E 240 80 50 00
        E 0 90 4f 42
        E 1920 80 4f 00
        E 0 90 4a 40
        E 720 80 4a 00
        E 0 90 47 3f
        E 240 80 47 00
        E 0 90 4a 40
        E 720 80 4a 00
        E 0 90 4b 42
        E 240 80 4b 00
        E 0 90 4d 45
        E 1920 80 4d 00
        E 0 90 4b 67
        E 480 80 4b 00
        E 0 90 4d 63
        E 240 80 4d 00
        E 0 90 4b 60
        E 240 80 4b 00
        E 0 90 4a 5f
        E 240 80 4a 00
        E 0 90 48 5b
        E 240 80 48 00
        E 0 90 4a 61
        E 240 80 4a 00
        E 0 90 4b 64
        E 240 80 4b 00
        E 0 90 4b 7d
        E 1920 80 4b 00
        E 0 90 4a 67
        E 720 80 4a 00
        E 0 90 47 65
        E 240 80 47 00
        E 0 90 4a 67
        E 720 80 4a 00
        E 0 90 4b 6a
        E 240 80 4b 00
        E 0 90 4d 6e
        E 1920 80 4d 00
        E 0 90 50 69
        E 480 80 50 00
        E 0 90 4f 61
        E 240 80 4f 00
        E 0 90 4b 5c
        E 240 80 4b 00
        E 0 90 48 58
        E 240 80 48 00
        E 0 90 44 54
        E 240 80 44 00
        E 0 90 4b 66
        E 240 80 4b 00
        E 0 90 4f 6e
        E 240 80 4f 00
        E 0 90 4d 7f
        E 1920 80 4d 00
        E 0 90 50 69
        E 1920 80 50 00
        E 0 90 4f 66
        E 120 80 4f 00
        E 0 90 4d 5c
        E 120 80 4d 00
        E 0 90 4b 56
        E 120 80 4b 00
        E 0 90 4a 51
        E 120 80 4a 00
        E 0 90 48 4a
        E 120 80 48 00
        E 0 90 46 44
        E 120 80 46 00
        E 0 90 44 3e
        E 120 80 44 00
        E 0 90 43 39
        E 120 80 43 00
        E 0 90 42 3f
        E 480 80 42 00
        E 0 90 43 37
        E 480 80 43 00
        E 0 90 4a 48
        E 960 80 4a 00
        E 0 90 46 40
        E 0 90 4b 40
        E 960 80 46 00
        E 0 80 4b 00
        E 0 90 4b 42
        E 0 90 4f 42
        E 1920 80 4b 00
        E 0 80 4f 00
        E 0 90 4f 41
        E 0 90 52 41
        E 3839 80 4f 00
        E 0 80 52 00
        E 1 b0 7b 00
        CCINTERP 32
        CHASE_CC_TAKEOFFS 1
        GUID {FD85B53A-E551-F045-A3D2-D8D010E3F3A8}
        IGNTEMPO 0 120 4 4
        SRCCOLOR 80
        VELLANE -1 100 0
        CFGEDITVIEW 0 0.005959 45 12 0 -1 0 0 0 0.5
        KEYSNAP 0
        TRACKSEL -252
        EVTFILTER 0 -1 -1 -1 -1 0 0 0 0 -1 -1 -1 -1 0 -1 0 -1 -1
        CFGEDIT 1 1 0 1 0 4 1 1 1 1 1 0.25 253 78 1566 1057 0 0 0 0 0 0 0 0 0 0.5 0 0 1 64
      >
    >
  >
  <TRACK {916267EA-D229-A142-A8F9-1F7B23616D29}
    NAME harmo2
    PEAKCOL 16576
    BEAT -1
    AUTOMODE 0
    VOLPAN 1 0 -1 -1 1
    MUTESOLO 0 0 0
    IPHASE 0
    PLAYOFFS 0 1
    ISBUS 0 0
    BUSCOMP 0 0 0 0 0
    SHOWINMIX 1 0.6667 0.5 1 0.5 0 0 0
    SEL 0
    REC 0 0 1 0 0 0 0 0
    VU 2
    TRACKHEIGHT 0 0 0 0 0 0
    INQ 0 0 0 0.5 100 0 0 100
    NCHAN 2
    FX 1
    TRACKID {916267EA-D229-A142-A8F9-1F7B23616D29}
    PERF 0
    MIDIOUT -1
    MAINSEND 1 0
    <FXCHAIN
      WNDRECT 920 74 611 488
      SHOW 0
      LASTSEL 0
      DOCKED 0
      BYPASS 0 0 0
      <VST "VSTi: ReaSynth (Cockos)" reasynth.vst.dylib 0 "" 1919251321<5653547265737972656173796E746800> ""
        eXNlcu9e7f4AAAAAAgAAAAEAAAAAAAAAAgAAAAAAAABEAAAAAAAAAAAAEAA=
        776t3g3wrd6ygy48I7KPPQAAAAAAAAAAAACAP6ql7T5zu7c7CKzcPgAAQD+sDgU/AACAPwAAAD8AAIA/AAAAAAAAAAA=
        AAAQAAAA
      >
      FLOATPOS 0 0 0 0
      FXID {ED692F09-6DBC-1547-8017-93D8C5219C51}
      WAK 0 0
    >
    <ITEM
      POSITION 0
      SNAPOFFS 0
      LENGTH 116.571312
      LOOP 1
      ALLTAKES 0
      FADEIN 1 0 0 1 0 0 0
      FADEOUT 1 0 0 1 0 0 0
      MUTE 0 0
      SEL 0
      IGUID {02A7BFFA-130A-8E4C-A9A1-A85463672A38}
      IID 31
      NAME "Violin I - nn.mid"
      VOLPAN 1 0 1 -1
      SOFFS 0 0
      PLAYRATE 1 1 0 -1 0 0.0025
      CHANMODE 0
      GUID {5DA888F7-A7C6-DA4F-BD0C-FB0444C7907B}
      <SOURCE MIDI
        HASDATA 1 960 QN
        CCINTERP 32
        POOLEDEVTS {8D9E9F44-3DA9-4748-8FB6-02C778A6E8DC}
        E 0 c1 30 00
        E 0 b1 40 00
        E 0 b1 5b 30
        E 0 b1 0a 10
        E 0 b1 07 64
        E 0 91 4f 2a
        E 0 b1 79 00
        E 75 81 4f 00
        E 23 91 50 2a
        E 75 81 50 00
        E 22 91 4f 2a
        E 75 81 4f 00
        E 23 91 50 2a
        E 75 81 50 00
        E 18 91 4f 28
        E 75 81 4f 00
        E 19 91 50 28
        E 75 81 50 00
        E 19 91 4f 28
        E 75 81 4f 00
        E 19 91 50 28
        E 75 81 50 00
        E 18 91 4f 29
        E 75 81 4f 00
        E 15 91 50 29
        E 72 81 50 00
        E 18 91 4f 29
        E 72 81 4f 00
        E 18 91 50 29
        E 72 81 50 00
        E 18 91 4f 2a
        E 72 81 4f 00
        E 15 91 50 2a
        E 67 81 50 00
        E 19 91 4f 2a
        E 67 81 4f 00
        E 19 91 50 2a
        E 68 81 50 00
        E 18 91 4f 2b
        E 68 81 4f 00
        E 15 91 50 2b
        E 64 81 50 00
        E 18 91 4f 2b
        E 64 81 4f 00
        E 19 91 50 2b
        E 64 81 50 00
        E 18 91 4f 2c
        E 64 81 4f 00
        E 19 91 50 2c
        E 64 81 50 00
        E 15 91 4f 2c
        E 60 81 4f 00
        E 18 91 50 2c
        E 60 81 50 00
        E 19 91 4f 2d
        E 60 81 4f 00
        E 19 91 50 2d
        E 60 81 50 00
        E 19 91 4f 2d
        E 60 81 4f 00
        E 22 91 50 2d
        E 64 81 50 00
        E 19 91 4f 2d
        E 63 81 4f 00
        E 19 91 50 2e
        E 64 81 50 00
        E 19 91 4f 2e
        E 63 81 4f 00
        E 19 91 50 2e
        E 64 81 50 00
        E 22 91 4f 2e
        E 68 81 4f 00
        E 19 91 50 2f
        E 67 81 50 00
        E 19 91 4f 2f
        E 67 81 4f 00
        E 19 91 50 2f
        E 68 81 50 00
        E 22 91 4f 2f
        E 71 81 4f 00
        E 19 91 50 30
        E 71 81 50 00
        E 19 91 4f 30
        E 71 81 4f 00
        E 19 91 50 30
        E 71 81 50 00
        E 23 91 4f 30
        E 75 81 4f 00
        E 19 91 50 31
        E 75 81 50 00
        E 18 91 4f 31
        E 75 81 4f 00
        E 19 91 50 31
        E 71 81 50 00
        E 4 91 4d 35
        E 75 81 4d 00
        E 23 91 4f 35
        E 75 81 4f 00
        E 22 91 4d 35
        E 75 81 4d 00
        E 23 91 4f 35
        E 75 81 4f 00
        E 18 91 4d 33
        E 75 81 4d 00
        E 19 91 4f 33
        E 75 81 4f 00
        E 19 91 4d 33
        E 75 81 4d 00
        E 19 91 4f 33
        E 75 81 4f 00
        E 18 91 4d 34
        E 75 81 4d 00
        E 15 91 4f 34
        E 72 81 4f 00
        E 18 91 4d 34
        E 72 81 4d 00
        E 18 91 4f 34
        E 72 81 4f 00
        E 18 91 4d 35
        E 72 81 4d 00
        E 15 91 4f 35
        E 67 81 4f 00
        E 19 91 4d 35
        E 67 81 4d 00
        E 19 91 4f 35
        E 68 81 4f 00
        E 18 91 4d 36
        E 68 81 4d 00
        E 15 91 4f 36
        E 64 81 4f 00
        E 18 91 4d 36
        E 64 81 4d 00
        E 19 91 4f 36
        E 64 81 4f 00
        E 18 91 4d 37
        E 64 81 4d 00
        E 19 91 4f 37
        E 64 81 4f 00
        E 15 91 4d 37
        E 60 81 4d 00
        E 18 91 4f 37
        E 60 81 4f 00
        E 19 91 4d 38
        E 60 81 4d 00
        E 19 91 4f 38
        E 60 81 4f 00
        E 19 91 4d 38
        E 60 81 4d 00
        E 22 91 4f 38
        E 64 81 4f 00
        E 19 91 4d 39
        E 63 81 4d 00
        E 19 91 4f 39
        E 64 81 4f 00
        E 19 91 4d 39
        E 63 81 4d 00
        E 19 91 4f 39
        E 64 81 4f 00
        E 22 91 4d 39
        E 68 81 4d 00
        E 19 91 4f 3a
        E 67 81 4f 00
        E 19 91 4d 3a
        E 67 81 4d 00
        E 19 91 4f 3a
        E 68 81 4f 00
        E 22 91 4d 3a
        E 71 81 4d 00
        E 19 91 4f 3b
        E 71 81 4f 00
        E 19 91 4d 3b
        E 71 81 4d 00
        E 19 91 4f 3b
        E 71 81 4f 00
        E 23 91 4d 3c
        E 75 81 4d 00
        E 19 91 4f 3c
        E 75 81 4f 00
        E 18 91 4d 3c
        E 75 81 4d 00
        E 19 91 4f 3c
        E 71 81 4f 00
        E 4 91 46 41
        E 75 81 46 00
        E 23 91 48 41
        E 75 81 48 00
        E 22 91 46 41
        E 75 81 46 00
        E 23 91 48 41
        E 75 81 48 00
        E 18 91 46 3e
        E 75 81 46 00
        E 19 91 48 3e
        E 75 81 48 00
        E 19 91 46 3e
        E 75 81 46 00
        E 19 91 48 3e
        E 75 81 48 00
        E 18 91 46 3f
        E 75 81 46 00
        E 15 91 48 3f
        E 72 81 48 00
        E 18 91 46 3f
        E 72 81 46 00
        E 18 91 48 3f
        E 72 81 48 00
        E 18 91 46 40
        E 72 81 46 00
        E 15 91 48 40
        E 67 81 48 00
        E 19 91 46 40
        E 67 81 46 00
        E 19 91 48 40
        E 68 81 48 00
        E 18 91 46 41
        E 68 81 46 00
        E 15 91 48 41
        E 64 81 48 00
        E 18 91 46 41
        E 64 81 46 00
        E 19 91 48 41
        E 64 81 48 00
        E 18 91 46 42
        E 64 81 46 00
        E 19 91 48 42
        E 64 81 48 00
        E 15 91 46 42
        E 60 81 46 00
        E 18 91 48 42
        E 60 81 48 00
        E 19 91 46 43
        E 60 81 46 00
        E 19 91 48 43
        E 60 81 48 00
        E 19 91 46 43
        E 60 81 46 00
        E 22 91 48 43
        E 64 81 48 00
        E 19 91 46 44
        E 63 81 46 00
        E 19 91 48 44
        E 64 81 48 00
        E 19 91 46 44
        E 63 81 46 00
        E 19 91 48 44
        E 64 81 48 00
        E 22 91 46 44
        E 68 81 46 00
        E 19 91 48 45
        E 67 81 48 00
        E 19 91 46 45
        E 67 81 46 00
        E 19 91 48 45
        E 68 81 48 00
        E 22 91 46 45
        E 71 81 46 00
        E 19 91 48 46
        E 71 81 48 00
        E 19 91 46 46
        E 71 81 46 00
        E 19 91 48 46
        E 71 81 48 00
        E 23 91 46 47
        E 75 81 46 00
        E 19 91 48 47
        E 75 81 48 00
        E 18 91 46 47
        E 75 81 46 00
        E 19 91 48 47
        E 71 81 48 00
        E 4 91 41 4d
        E 75 81 41 00
        E 23 91 43 4d
        E 75 81 43 00
        E 22 91 41 4d
        E 75 81 41 00
        E 23 91 43 4d
        E 75 81 43 00
        E 18 91 41 49
        E 75 81 41 00
        E 19 91 43 49
        E 75 81 43 00
        E 19 91 41 49
        E 75 81 41 00
        E 19 91 43 49
        E 75 81 43 00
        E 18 91 41 4a
        E 75 81 41 00
        E 15 91 43 4a
        E 72 81 43 00
        E 18 91 41 4a
        E 72 81 41 00
        E 18 91 43 4a
        E 72 81 43 00
        E 18 91 41 4b
        E 72 81 41 00
        E 15 91 43 4b
        E 67 81 43 00
        E 19 91 41 4b
        E 67 81 41 00
        E 19 91 43 4b
        E 68 81 43 00
        E 18 91 41 4c
        E 68 81 41 00
        E 15 91 43 4c
        E 64 81 43 00
        E 18 91 41 4c
        E 64 81 41 00
        E 19 91 43 4c
        E 64 81 43 00
        E 18 91 41 4d
        E 64 81 41 00
        E 19 91 43 4d
        E 64 81 43 00
        E 15 91 41 4d
        E 60 81 41 00
        E 18 91 43 4d
        E 60 81 43 00
        E 19 91 41 4e
        E 60 81 41 00
        E 19 91 43 4e
        E 60 81 43 00
        E 19 91 41 4e
        E 60 81 41 00
        E 22 91 43 4e
        E 64 81 43 00
        E 19 91 41 4f
        E 63 81 41 00
        E 19 91 43 4f
        E 64 81 43 00
        E 19 91 41 4f
        E 63 81 41 00
        E 19 91 43 4f
        E 64 81 43 00
        E 22 91 41 4f
        E 68 81 41 00
        E 19 91 43 50
        E 67 81 43 00
        E 19 91 41 50
        E 67 81 41 00
        E 19 91 43 50
        E 68 81 43 00
        E 22 91 41 50
        E 71 81 41 00
        E 19 91 43 51
        E 71 81 43 00
        E 19 91 41 51
        E 71 81 41 00
        E 19 91 43 51
        E 71 81 43 00
        E 23 91 41 52
        E 75 81 41 00
        E 19 91 43 52
        E 75 81 43 00
        E 18 91 41 52
        E 75 81 41 00
        E 19 91 43 52
        E 71 81 43 00
        E 4 91 44 59
        E 960 91 46 55
        E 19 81 44 00
        E 941 91 48 59
        E 19 81 46 00
        E 941 91 46 53
        E 19 81 48 00
        E 892 81 46 00
        E 49 91 46 5b
        E 0 91 4a 5b
        E 960 81 46 00
        E 0 81 4a 00
        E 0 91 46 54
        E 0 91 4a 54
        E 960 81 46 00
        E 0 81 4a 00
        E 0 91 45 57
        E 0 91 4a 57
        E 960 81 45 00
        E 0 81 4a 00
        E 0 91 44 54
        E 0 91 4a 54
        E 960 81 44 00
        E 0 81 4a 00
        E 0 91 43 57
        E 0 91 46 57
        E 1920 81 43 00
        E 0 81 46 00
        E 0 91 46 58
        E 0 91 4a 58
        E 1920 81 46 00
        E 0 81 4a 00
        E 0 91 4b 59
        E 3840 81 4b 00
        E 0 91 43 68
        E 1920 91 44 66
        E 38 81 43 00
        E 1882 91 41 67
        E 38 81 44 00
        E 1785 81 41 00
        E 97 91 44 66
        E 1920 81 44 00
        E 0 91 44 68
        E 480 81 44 00
        E 0 91 43 61
        E 1440 81 43 00
        E 0 91 4a 69
        E 240 81 4a 00
        E 0 91 4b 65
        E 240 81 4b 00
        E 0 91 4d 68
        E 240 81 4d 00
        E 0 91 4b 62
        E 240 81 4b 00
        E 0 91 46 57
        E 240 81 46 00
        E 0 91 44 55
        E 240 81 44 00
        E 0 91 43 55
        E 240 81 43 00
        E 0 91 41 53
        E 240 81 41 00
        E 0 91 44 62
        E 240 81 44 00
        E 0 91 41 56
        E 240 81 41 00
        E 0 91 4a 70
        E 240 81 4a 00
        E 0 91 46 65
        E 240 81 46 00
        E 0 91 4d 70
        E 240 81 4d 00
        E 0 91 4a 6d
        E 240 81 4a 00
        E 0 91 4f 70
        E 240 81 4f 00
        E 0 91 4b 69
        E 240 81 4b 00
        E 0 91 4a 67
        E 1920 81 4a 00
        E 0 91 43 49
        E 1920 91 44 4a
        E 38 81 43 00
        E 1882 81 44 00
        E 0 91 41 4b
        E 0 91 44 4b
        E 911 81 44 00
        E 49 91 46 48
        E 863 81 41 00
        E 97 81 46 00
        E 0 91 48 4b
        E 960 81 48 00
        E 0 91 47 62
        E 960 81 47 00
        E 0 91 43 65
        E 960 81 43 00
        E 0 91 43 63
        E 0 91 46 63
        E 960 81 43 00
        E 0 81 46 00
        E 0 91 46 66
        E 480 81 46 00
        E 0 91 4a 66
        E 480 81 4a 00
        E 0 91 4d 68
        E 960 81 4d 00
        E 0 91 4a 67
        E 1920 81 4a 00
        E 0 91 46 65
        E 120 81 46 00
        E 120 91 44 57
        E 120 81 44 00
        E 120 91 43 4e
        E 120 81 43 00
        E 120 91 41 44
        E 120 81 41 00
        E 120 91 3f 39
        E 960 81 3f 00
        E 0 91 43 6a
        E 1920 91 44 66
        E 38 81 43 00
        E 1882 91 41 67
        E 38 81 44 00
        E 1785 81 41 00
        E 97 91 44 66
        E 1920 81 44 00
        E 0 91 44 68
        E 480 81 44 00
        E 0 91 43 61
        E 1440 81 43 00
        E 0 91 4a 69
        E 240 81 4a 00
        E 0 91 4b 65
        E 240 81 4b 00
        E 0 91 4d 68
        E 240 81 4d 00
        E 0 91 4b 62
        E 240 81 4b 00
        E 0 91 46 57
        E 240 81 46 00
        E 0 91 44 55
        E 240 81 44 00
        E 0 91 43 55
        E 240 81 43 00
        E 0 91 41 53
        E 240 81 41 00
        E 0 91 44 62
        E 240 81 44 00
        E 0 91 41 56
        E 240 81 41 00
        E 0 91 4a 70
        E 240 81 4a 00
        E 0 91 46 65
        E 240 81 46 00
        E 0 91 4d 70
        E 240 81 4d 00
        E 0 91 4a 6d
        E 240 81 4a 00
        E 0 91 4f 70
        E 240 81 4f 00
        E 0 91 4b 69
        E 240 81 4b 00
        E 0 91 4a 67
        E 1920 81 4a 00
        E 0 91 43 49
        E 1920 91 44 4a
        E 38 81 43 00
        E 1882 81 44 00
        E 0 91 41 4b
        E 0 91 44 4b
        E 911 81 44 00
        E 49 91 46 48
        E 863 81 41 00
        E 97 81 46 00
        E 0 91 48 4b
        E 960 81 48 00
        E 0 91 47 62
        E 960 81 47 00
        E 0 91 43 65
        E 960 81 43 00
        E 0 91 43 63
        E 0 91 46 63
        E 960 81 43 00
        E 0 81 46 00
        E 0 91 46 66
        E 480 81 46 00
        E 0 91 4a 66
        E 480 81 4a 00
        E 0 91 4d 68
        E 960 81 4d 00
        E 0 91 4a 67
        E 1920 81 4a 00
        E 0 91 46 65
        E 120 81 46 00
        E 120 91 44 57
        E 120 81 44 00
        E 120 91 43 4e
        E 120 81 43 00
        E 120 91 41 44
        E 120 81 41 00
        E 120 91 3f 39
        E 960 81 3f 00
        E 0 91 3f 3f
        E 1440 81 3f 00
        E 0 91 41 3d
        E 480 81 41 00
        E 0 91 43 41
        E 1440 81 43 00
        E 0 91 44 3d
        E 480 81 44 00
        E 0 91 41 3f
        E 1440 81 41 00
        E 0 91 41 3d
        E 480 81 41 00
        E 0 91 43 40
        E 1440 81 43 00
        E 0 91 44 3d
        E 480 81 44 00
        E 0 91 3f 3e
        E 720 81 3f 00
        E 0 91 41 40
        E 240 81 41 00
        E 0 91 43 41
        E 720 81 43 00
        E 0 91 44 42
        E 240 81 44 00
        E 0 91 46 45
        E 1920 81 46 00
        E 0 91 47 41
        E 720 81 47 00
        E 0 91 44 3f
        E 240 81 44 00
        E 0 91 47 40
        E 720 81 47 00
        E 0 91 4a 43
        E 240 81 4a 00
        E 0 91 47 40
        E 1920 81 47 00
        E 0 91 48 68
        E 960 81 48 00
        E 0 91 46 61
        E 960 81 46 00
        E 0 91 48 67
        E 1920 81 48 00
        E 0 91 47 68
        E 720 81 47 00
        E 0 91 44 65
        E 240 81 44 00
        E 0 91 47 67
        E 720 81 47 00
        E 0 91 4a 6c
        E 240 81 4a 00
        E 0 91 47 67
        E 1920 81 47 00
        E 0 91 48 68
        E 960 81 48 00
        E 0 91 41 5e
        E 240 81 41 00
        E 0 91 3e 5c
        E 240 81 3e 00
        E 0 91 44 67
        E 240 81 44 00
        E 0 91 48 6d
        E 240 81 48 00
        E 0 91 46 7f
        E 1920 81 46 00
        E 0 91 4a 6a
        E 1920 81 4a 00
        E 0 91 46 65
        E 120 81 46 00
        E 120 91 44 57
        E 120 81 44 00
        E 120 91 43 4e
        E 120 81 43 00
        E 120 91 41 44
        E 120 81 41 00
        E 120 91 3f 39
        E 960 81 3f 00
        E 0 91 46 44
        E 1920 81 46 00
        E 0 91 46 40
        E 0 91 4a 40
        E 960 81 46 00
        E 0 81 4a 00
        E 0 91 43 3c
        E 0 91 46 3c
        E 960 81 43 00
        E 0 81 46 00
        E 0 91 43 40
        E 0 91 46 40
        E 3839 81 43 00
        E 0 81 46 00
        E 1 b0 7b 00
        CCINTERP 32
        CHASE_CC_TAKEOFFS 1
        GUID {4833B86B-EDD2-B643-9FDF-539F8EE772E8}
        IGNTEMPO 0 120 4 4
        SRCCOLOR 81
        VELLANE -1 100 0
        CFGEDITVIEW 0 0.005959 47 12 0 -1 0 0 0 0.5
        KEYSNAP 0
        TRACKSEL -252
        EVTFILTER 0 -1 -1 -1 -1 0 0 0 0 -1 -1 -1 -1 0 -1 0 -1 -1
        CFGEDIT 1 1 0 1 0 4 1 1 1 1 1 0.25 253 78 1566 1057 0 0 0 0 0 0 0 0 0 0.5 0 0 1 64
      >
    >
  >
  <TRACK {F44C9944-5CCF-CF4A-9013-BA82ABCC7483}
    NAME lead
    PEAKCOL 16576
    BEAT -1
    AUTOMODE 0
    VOLPAN 0.65117411147315 0 -1 -1 1
    MUTESOLO 0 0 0
    IPHASE 0
    PLAYOFFS 0 1
    ISBUS 0 0
    BUSCOMP 0 0 0 0 0
    SHOWINMIX 1 0.6667 0.5 1 0.5 0 0 0
    SEL 0
    REC 0 0 1 0 0 0 0 0
    VU 2
    TRACKHEIGHT 0 0 0 0 0 0
    INQ 0 0 0 0.5 100 0 0 100
    NCHAN 2
    FX 1
    TRACKID {F44C9944-5CCF-CF4A-9013-BA82ABCC7483}
    PERF 0
    MIDIOUT -1
    MAINSEND 1 0
    <FXCHAIN
      WNDRECT 117 57 611 488
      SHOW 0
      LASTSEL 0
      DOCKED 0
      BYPASS 0 0 0
      <VST "VSTi: ReaSynth (Cockos)" reasynth.vst.dylib 0 "" 1919251321<5653547265737972656173796E746800> ""
        eXNlcu9e7f4AAAAAAgAAAAEAAAAAAAAAAgAAAAAAAABEAAAAAAAAAAAAEAA=
        776t3g3wrd5kuls9thGWPdV4ST8AAAAAAAAAAMYXDT8/qZg8uB4FPyUGQT/d7Lo+AAAAAAAAAD8AAAAArXsYPAAAAAA=
        AFByb2dyYW0gMQAQAAAA
      >
      FLOATPOS 0 0 0 0
      FXID {370BBDF4-1A2B-0E41-A14F-67DD52389032}
      WAK 0 0
    >
  >
  <TRACK {CC16CDEB-E5C9-334F-9F4C-AED5FC7CA0E0}
    NAME lead2
    PEAKCOL 16576
    BEAT -1
    AUTOMODE 0
    VOLPAN 0.65117411147315 0 -1 -1 1
    MUTESOLO 0 0 0
    IPHASE 0
    PLAYOFFS 0 1
    ISBUS 0 0
    BUSCOMP 0 0 0 0 0
    SHOWINMIX 1 0.6667 0.5 1 0.5 0 0 0
    SEL 0
    REC 0 0 1 0 0 0 0 0
    VU 2
    TRACKHEIGHT 0 0 0 0 0 0
    INQ 0 0 0 0.5 100 0 0 100
    NCHAN 2
    FX 1
    TRACKID {CC16CDEB-E5C9-334F-9F4C-AED5FC7CA0E0}
    PERF 0
    MIDIOUT -1
    MAINSEND 1 0
    <FXCHAIN
      WNDRECT 494 -16 611 488
      SHOW 0
      LASTSEL 0
      DOCKED 0
      BYPASS 0 0 0
      <VST "VSTi: ReaSynth (Cockos)" reasynth.vst.dylib 0 "" 1919251321<5653547265737972656173796E746800> ""
        eXNlcu9e7f4AAAAAAgAAAAEAAAAAAAAAAgAAAAAAAABEAAAAAAAAAAAAEAA=
        776t3g3wrd5kuls99LOdPdV4ST8AAAAAAAAAAMYXDT8/qZg8uB4FPyUGQT/d7Lo+AAAAAAAAAD8AAAAArXsYPAAAAAA=
        AAAQAAAA
      >
      FLOATPOS 0 0 0 0
      FXID {C4B64097-9A42-FE4B-8F70-F099B3F37F71}
      WAK 0 0
    >
  >
  <TRACK {84A5B5FB-2ADF-FB45-B488-7C7E4174F855}
    NAME melody
    PEAKCOL 16576
    BEAT -1
    AUTOMODE 0
    VOLPAN 0.70462939198009 0 -1 -1 1
    MUTESOLO 0 0 0
    IPHASE 0
    PLAYOFFS 0 1
    ISBUS 0 0
    BUSCOMP 0 0 0 0 0
    SHOWINMIX 1 0.6667 0.5 1 0.5 0 0 0
    SEL 0
    REC 0 0 1 0 0 0 0 0
    VU 2
    TRACKHEIGHT 0 0 0 0 0 0
    INQ 0 0 0 0.5 100 0 0 100
    NCHAN 2
    FX 1
    TRACKID {84A5B5FB-2ADF-FB45-B488-7C7E4174F855}
    PERF 0
    MIDIOUT -1
    MAINSEND 1 0
    <FXCHAIN
      WNDRECT 267 57 611 488
      SHOW 0
      LASTSEL 0
      DOCKED 0
      BYPASS 0 0 0
      <VST "VSTi: ReaSynth (Cockos)" reasynth.vst.dylib 0 "" 1919251321<5653547265737972656173796E746800> ""
        eXNlcu9e7f4AAAAAAgAAAAEAAAAAAAAAAgAAAAAAAABEAAAAAAAAAAAAEAA=
        776t3g3wrd7XGJM8VJY1PQAAAAC+nzo/AACAP2rccT6aIC88ZmZmPgAAgD+sDgU/AACAPwAAAD8AAIA/AAAAAAAAAAA=
        AAAQAAAA
      >
      FLOATPOS 0 0 0 0
      FXID {4CD8A774-ABBB-9145-A703-CB4B28266042}
      WAK 0 0
    >
    <ITEM
      POSITION 0
      SNAPOFFS 0
      LENGTH 116.571312
      LOOP 1
      ALLTAKES 0
      FADEIN 1 0 0 1 0 0 0
      FADEOUT 1 0 0 1 0 0 0
      MUTE 0 0
      SEL 0
      IGUID {40BDF468-AF39-ED43-96EB-C40E94C8FB19}
      IID 32
      NAME "Viola - nn.mid"
      VOLPAN 1 0 1 -1
      SOFFS 0 0
      PLAYRATE 1 1 0 -1 0 0.0025
      CHANMODE 0
      GUID {284B23C6-C3A0-584F-A6CD-47D49F44C265}
      <SOURCE MIDI
        HASDATA 1 960 QN
        CCINTERP 32
        POOLEDEVTS {DAC3C364-EDF3-E64F-9439-D26D48E6AE46}
        E 0 c2 30 00
        E 0 b2 40 00
        E 0 b2 5b 3c
        E 0 b2 0a 20
        E 0 b2 07 5c
        E 0 b2 79 00
        E 17280 92 3c 29
        E 1920 82 3c 00
        E 0 92 37 39
        E 960 92 38 3e
        E 19 82 37 00
        E 941 92 39 49
        E 19 82 38 00
        E 941 92 38 4c
        E 19 82 39 00
        E 892 82 38 00
        E 49 92 3a 5a
        E 960 92 3c 55
        E 19 82 3a 00
        E 941 92 3f 59
        E 19 82 3c 00
        E 941 92 3e 54
        E 19 82 3f 00
        E 892 82 3e 00
        E 49 92 37 55
        E 3840 82 37 00
        E 0 92 3c 68
        E 94 82 3c 00
        E 26 92 3c 68
        E 94 82 3c 00
        E 26 92 3c 68
        E 94 82 3c 00
        E 26 92 3c 68
        E 94 82 3c 00
        E 26 92 3c 68
        E 94 82 3c 00
        E 26 92 3c 68
        E 94 82 3c 00
        E 26 92 3c 68
        E 94 82 3c 00
        E 26 92 3c 68
        E 94 82 3c 00
        E 26 92 3c 68
        E 94 82 3c 00
        E 26 92 3c 68
        E 94 82 3c 00
        E 26 92 3c 68
        E 94 82 3c 00
        E 26 92 3c 68
        E 94 82 3c 00
        E 26 92 3c 68
        E 94 82 3c 00
        E 26 92 3c 68
        E 94 82 3c 00
        E 26 92 3c 68
        E 94 82 3c 00
        E 26 92 3c 68
        E 94 82 3c 00
        E 26 92 44 66
        E 480 82 44 00
        E 0 92 41 60
        E 480 82 41 00
        E 0 92 3f 5e
        E 480 82 3f 00
        E 0 92 3e 5e
        E 480 82 3e 00
        E 0 92 3a 5f
        E 0 92 3e 5f
        E 94 82 3a 00
        E 0 82 3e 00
        E 26 92 3a 5f
        E 0 92 3e 5f
        E 94 82 3a 00
        E 0 82 3e 00
        E 26 92 3a 5f
        E 0 92 3e 5f
        E 94 82 3a 00
        E 0 82 3e 00
        E 26 92 3a 5f
        E 0 92 3e 5f
        E 94 82 3a 00
        E 0 82 3e 00
        E 26 92 3a 5f
        E 0 92 3e 5f
        E 94 82 3a 00
        E 0 82 3e 00
        E 26 92 3a 5f
        E 0 92 3e 5f
        E 94 82 3a 00
        E 0 82 3e 00
        E 26 92 3a 5f
        E 0 92 3e 5f
        E 94 82 3a 00
        E 0 82 3e 00
        E 26 92 3a 5f
        E 0 92 3e 5f
        E 94 82 3a 00
        E 0 82 3e 00
        E 26 92 3a 5f
        E 0 92 3e 5f
        E 94 82 3a 00
        E 0 82 3e 00
        E 26 92 3a 5f
        E 0 92 3e 5f
        E 94 82 3a 00
        E 0 82 3e 00
        E 26 92 3a 5f
        E 0 92 3e 5f
        E 94 82 3a 00
        E 0 82 3e 00
        E 26 92 3a 5f
        E 0 92 3e 5f
        E 94 82 3a 00
        E 0 82 3e 00
        E 26 92 3a 5f
        E 0 92 3e 5f
        E 94 82 3a 00
        E 0 82 3e 00
        E 26 92 3a 5f
        E 0 92 3e 5f
        E 94 82 3a 00
        E 0 82 3e 00
        E 26 92 3a 5f
        E 0 92 3e 5f
        E 94 82 3a 00
        E 0 82 3e 00
        E 26 92 3a 5f
        E 0 92 3e 5f
        E 94 82 3a 00
        E 0 82 3e 00
        E 26 92 38 65
        E 960 82 38 00
        E 0 92 3f 65
        E 480 82 3f 00
        E 0 92 3a 5f
        E 480 82 3a 00
        E 0 92 38 63
        E 0 92 3c 63
        E 94 82 38 00
        E 0 82 3c 00
        E 26 92 38 63
        E 0 92 3c 63
        E 94 82 38 00
        E 0 82 3c 00
        E 26 92 38 63
        E 0 92 3c 63
        E 94 82 38 00
        E 0 82 3c 00
        E 26 92 38 63
        E 0 92 3c 63
        E 94 82 38 00
        E 0 82 3c 00
        E 26 92 38 63
        E 0 92 3c 63
        E 94 82 38 00
        E 0 82 3c 00
        E 26 92 38 63
        E 0 92 3c 63
        E 94 82 38 00
        E 0 82 3c 00
        E 26 92 38 63
        E 0 92 3c 63
        E 94 82 38 00
        E 0 82 3c 00
        E 26 92 38 63
        E 0 92 3c 63
        E 94 82 38 00
        E 0 82 3c 00
        E 26 92 38 63
        E 0 92 3c 63
        E 94 82 38 00
        E 0 82 3c 00
        E 26 92 38 63
        E 0 92 3c 63
        E 94 82 38 00
        E 0 82 3c 00
        E 26 92 38 63
        E 0 92 3c 63
        E 94 82 38 00
        E 0 82 3c 00
        E 26 92 38 63
        E 0 92 3c 63
        E 94 82 38 00
        E 0 82 3c 00
        E 26 92 38 63
        E 0 92 3c 63
        E 94 82 38 00
        E 0 82 3c 00
        E 26 92 38 63
        E 0 92 3c 63
        E 94 82 38 00
        E 0 82 3c 00
        E 26 92 38 63
        E 0 92 3c 63
        E 94 82 38 00
        E 0 82 3c 00
        E 26 92 38 63
        E 0 92 3c 63
        E 94 82 38 00
        E 0 82 3c 00
        E 26 92 44 67
        E 480 82 44 00
        E 0 92 41 60
        E 480 82 41 00
        E 0 92 3f 5e
        E 480 82 3f 00
        E 0 92 3e 5e
        E 480 82 3e 00
        E 0 92 3a 5f
        E 0 92 3e 5f
        E 94 82 3a 00
        E 0 82 3e 00
        E 26 92 3a 5f
        E 0 92 3e 5f
        E 94 82 3a 00
        E 0 82 3e 00
        E 26 92 3a 5f
        E 0 92 3e 5f
        E 94 82 3a 00
        E 0 82 3e 00
        E 26 92 3a 5f
        E 0 92 3e 5f
        E 94 82 3a 00
        E 0 82 3e 00
        E 26 92 3a 5f
        E 0 92 3e 5f
        E 94 82 3a 00
        E 0 82 3e 00
        E 26 92 3a 5f
        E 0 92 3e 5f
        E 94 82 3a 00
        E 0 82 3e 00
        E 26 92 3a 5f
        E 0 92 3e 5f
        E 94 82 3a 00
        E 0 82 3e 00
        E 26 92 3a 5f
        E 0 92 3e 5f
        E 94 82 3a 00
        E 0 82 3e 00
        E 26 92 3a 5f
        E 0 92 3e 5f
        E 94 82 3a 00
        E 0 82 3e 00
        E 26 92 3a 5f
        E 0 92 3e 5f
        E 94 82 3a 00
        E 0 82 3e 00
        E 26 92 3a 5f
        E 0 92 3e 5f
        E 94 82 3a 00
        E 0 82 3e 00
        E 26 92 3a 5f
        E 0 92 3e 5f
        E 94 82 3a 00
        E 0 82 3e 00
        E 26 92 3a 5f
        E 0 92 3e 5f
        E 94 82 3a 00
        E 0 82 3e 00
        E 26 92 3a 5f
        E 0 92 3e 5f
        E 94 82 3a 00
        E 0 82 3e 00
        E 26 92 3a 5f
        E 0 92 3e 5f
        E 94 82 3a 00
        E 0 82 3e 00
        E 26 92 3a 5f
        E 0 92 3e 5f
        E 94 82 3a 00
        E 0 82 3e 00
        E 26 92 38 65
        E 960 82 38 00
        E 0 92 3c 56
        E 480 82 3c 00
        E 0 92 3e 50
        E 480 82 3e 00
        E 0 92 3f 4e
        E 94 82 3f 00
        E 26 92 3f 4e
        E 94 82 3f 00
        E 26 92 3f 4e
        E 94 82 3f 00
        E 26 92 3f 4e
        E 94 82 3f 00
        E 26 92 3f 4e
        E 94 82 3f 00
        E 26 92 3f 4e
        E 94 82 3f 00
        E 26 92 3f 4e
        E 94 82 3f 00
        E 26 92 3f 4e
        E 94 82 3f 00
        E 26 92 3f 4e
        E 94 82 3f 00
        E 26 92 3f 4e
        E 94 82 3f 00
        E 26 92 3f 4e
        E 94 82 3f 00
        E 26 92 3f 4e
        E 94 82 3f 00
        E 26 92 3f 4e
        E 94 82 3f 00
        E 26 92 3f 4e
        E 94 82 3f 00
        E 26 92 3f 4e
        E 94 82 3f 00
        E 26 92 3f 4e
        E 94 82 3f 00
        E 26 92 3f 4e
        E 94 82 3f 00
        E 26 92 3f 4e
        E 94 82 3f 00
        E 26 92 3f 4e
        E 94 82 3f 00
        E 26 92 3f 4e
        E 94 82 3f 00
        E 26 92 3f 4e
        E 94 82 3f 00
        E 26 92 3f 4e
        E 94 82 3f 00
        E 26 92 3f 4e
        E 94 82 3f 00
        E 26 92 3f 4e
        E 94 82 3f 00
        E 26 92 3f 4e
        E 94 82 3f 00
        E 26 92 3f 4e
        E 94 82 3f 00
        E 26 92 3f 4e
        E 94 82 3f 00
        E 26 92 3f 4e
        E 94 82 3f 00
        E 26 92 3f 4e
        E 94 82 3f 00
        E 26 92 3f 4e
        E 94 82 3f 00
        E 26 92 3f 4e
        E 94 82 3f 00
        E 26 92 3f 4e
        E 94 82 3f 00
        E 26 92 41 4b
        E 94 82 41 00
        E 26 92 41 4b
        E 94 82 41 00
        E 26 92 41 48
        E 94 82 41 00
        E 26 92 41 49
        E 94 82 41 00
        E 26 92 41 4a
        E 94 82 41 00
        E 26 92 41 4b
        E 94 82 41 00
        E 26 92 41 4b
        E 94 82 41 00
        E 26 92 41 4c
        E 94 82 41 00
        E 26 92 41 4d
        E 94 82 41 00
        E 26 92 41 4e
        E 94 82 41 00
        E 26 92 41 4f
        E 94 82 41 00
        E 26 92 41 50
        E 94 82 41 00
        E 26 92 41 50
        E 94 82 41 00
        E 26 92 41 51
        E 94 82 41 00
        E 26 92 41 52
        E 94 82 41 00
        E 26 92 41 53
        E 94 82 41 00
        E 26 92 41 54
        E 94 82 41 00
        E 26 92 41 54
        E 94 82 41 00
        E 26 92 41 55
        E 94 82 41 00
        E 26 92 41 56
        E 94 82 41 00
        E 26 92 41 57
        E 94 82 41 00
        E 26 92 41 58
        E 94 82 41 00
        E 26 92 41 59
        E 94 82 41 00
        E 26 92 41 59
        E 94 82 41 00
        E 26 92 41 5a
        E 94 82 41 00
        E 26 92 41 5b
        E 94 82 41 00
        E 26 92 41 5c
        E 94 82 41 00
        E 26 92 41 5d
        E 94 82 41 00
        E 26 92 41 5d
        E 94 82 41 00
        E 26 92 41 5e
        E 94 82 41 00
        E 26 92 41 5f
        E 94 82 41 00
        E 26 92 41 60
        E 94 82 41 00
        E 26 92 3f 68
        E 94 82 3f 00
        E 26 92 3f 68
        E 94 82 3f 00
        E 26 92 3f 68
        E 94 82 3f 00
        E 26 92 3f 68
        E 94 82 3f 00
        E 26 92 3f 68
        E 94 82 3f 00
        E 26 92 3f 68
        E 94 82 3f 00
        E 26 92 3f 68
        E 94 82 3f 00
        E 26 92 3f 68
        E 94 82 3f 00
        E 26 92 3f 68
        E 94 82 3f 00
        E 26 92 3f 68
        E 94 82 3f 00
        E 26 92 3f 68
        E 94 82 3f 00
        E 26 92 3f 68
        E 94 82 3f 00
        E 26 92 3f 68
        E 94 82 3f 00
        E 26 92 3f 68
        E 94 82 3f 00
        E 26 92 3f 68
        E 94 82 3f 00
        E 26 92 3f 68
        E 94 82 3f 00
        E 26 92 3f 66
        E 0 92 43 66
        E 1920 82 3f 00
        E 0 82 43 00
        E 0 92 41 67
        E 1920 82 41 00
        E 0 92 3e 65
        E 960 82 3e 00
        E 0 92 3d 3d
        E 960 82 3d 00
        E 0 92 3c 67
        E 94 82 3c 00
        E 26 92 3c 67
        E 94 82 3c 00
        E 26 92 3c 67
        E 94 82 3c 00
        E 26 92 3c 67
        E 94 82 3c 00
        E 26 92 3c 67
        E 94 82 3c 00
        E 26 92 3c 67
        E 94 82 3c 00
        E 26 92 3c 67
        E 94 82 3c 00
        E 26 92 3c 67
        E 94 82 3c 00
        E 26 92 3c 67
        E 94 82 3c 00
        E 26 92 3c 67
        E 94 82 3c 00
        E 26 92 3c 67
        E 94 82 3c 00
        E 26 92 3c 67
        E 94 82 3c 00
        E 26 92 3c 67
        E 94 82 3c 00
        E 26 92 3c 67
        E 94 82 3c 00
        E 26 92 3c 67
        E 94 82 3c 00
        E 26 92 3c 67
        E 94 82 3c 00
        E 26 92 44 66
        E 480 82 44 00
        E 0 92 41 60
        E 480 82 41 00
        E 0 92 3f 5e
        E 480 82 3f 00
        E 0 92 3e 5e
        E 480 82 3e 00
        E 0 92 3a 5f
        E 0 92 3e 5f
        E 94 82 3a 00
        E 0 82 3e 00
        E 26 92 3a 5f
        E 0 92 3e 5f
        E 94 82 3a 00
        E 0 82 3e 00
        E 26 92 3a 5f
        E 0 92 3e 5f
        E 94 82 3a 00
        E 0 82 3e 00
        E 26 92 3a 5f
        E 0 92 3e 5f
        E 94 82 3a 00
        E 0 82 3e 00
        E 26 92 3a 5f
        E 0 92 3e 5f
        E 94 82 3a 00
        E 0 82 3e 00
        E 26 92 3a 5f
        E 0 92 3e 5f
        E 94 82 3a 00
        E 0 82 3e 00
        E 26 92 3a 5f
        E 0 92 3e 5f
        E 94 82 3a 00
        E 0 82 3e 00
        E 26 92 3a 5f
        E 0 92 3e 5f
        E 94 82 3a 00
        E 0 82 3e 00
        E 26 92 3a 5f
        E 0 92 3e 5f
        E 94 82 3a 00
        E 0 82 3e 00
        E 26 92 3a 5f
        E 0 92 3e 5f
        E 94 82 3a 00
        E 0 82 3e 00
        E 26 92 3a 5f
        E 0 92 3e 5f
        E 94 82 3a 00
        E 0 82 3e 00
        E 26 92 3a 5f
        E 0 92 3e 5f
        E 94 82 3a 00
        E 0 82 3e 00
        E 26 92 3a 5f
        E 0 92 3e 5f
        E 94 82 3a 00
        E 0 82 3e 00
        E 26 92 3a 5f
        E 0 92 3e 5f
        E 94 82 3a 00
        E 0 82 3e 00
        E 26 92 3a 5f
        E 0 92 3e 5f
        E 94 82 3a 00
        E 0 82 3e 00
        E 26 92 3a 5f
        E 0 92 3e 5f
        E 94 82 3a 00
        E 0 82 3e 00
        E 26 92 38 65
        E 960 82 38 00
        E 0 92 3f 65
        E 480 82 3f 00
        E 0 92 3a 5f
        E 480 82 3a 00
        E 0 92 38 63
        E 0 92 3c 63
        E 94 82 38 00
        E 0 82 3c 00
        E 26 92 38 63
        E 0 92 3c 63
        E 94 82 38 00
        E 0 82 3c 00
        E 26 92 38 63
        E 0 92 3c 63
        E 94 82 38 00
        E 0 82 3c 00
        E 26 92 38 63
        E 0 92 3c 63
        E 94 82 38 00
        E 0 82 3c 00
        E 26 92 38 63
        E 0 92 3c 63
        E 94 82 38 00
        E 0 82 3c 00
        E 26 92 38 63
        E 0 92 3c 63
        E 94 82 38 00
        E 0 82 3c 00
        E 26 92 38 63
        E 0 92 3c 63
        E 94 82 38 00
        E 0 82 3c 00
        E 26 92 38 63
        E 0 92 3c 63
        E 94 82 38 00
        E 0 82 3c 00
        E 26 92 38 63
        E 0 92 3c 63
        E 94 82 38 00
        E 0 82 3c 00
        E 26 92 38 63
        E 0 92 3c 63
        E 94 82 38 00
        E 0 82 3c 00
        E 26 92 38 63
        E 0 92 3c 63
        E 94 82 38 00
        E 0 82 3c 00
        E 26 92 38 63
        E 0 92 3c 63
        E 94 82 38 00
        E 0 82 3c 00
        E 26 92 38 63
        E 0 92 3c 63
        E 94 82 38 00
        E 0 82 3c 00
        E 26 92 38 63
        E 0 92 3c 63
        E 94 82 38 00
        E 0 82 3c 00
        E 26 92 38 63
        E 0 92 3c 63
        E 94 82 38 00
        E 0 82 3c 00
        E 26 92 38 63
        E 0 92 3c 63
        E 94 82 38 00
        E 0 82 3c 00
        E 26 92 44 67
        E 480 82 44 00
        E 0 92 41 60
        E 480 82 41 00
        E 0 92 3f 5e
        E 480 82 3f 00
        E 0 92 3e 5e
        E 480 82 3e 00
        E 0 92 3a 5f
        E 0 92 3e 5f
        E 94 82 3a 00
        E 0 82 3e 00
        E 26 92 3a 5f
        E 0 92 3e 5f
        E 94 82 3a 00
        E 0 82 3e 00
        E 26 92 3a 5f
        E 0 92 3e 5f
        E 94 82 3a 00
        E 0 82 3e 00
        E 26 92 3a 5f
        E 0 92 3e 5f
        E 94 82 3a 00
        E 0 82 3e 00
        E 26 92 3a 5f
        E 0 92 3e 5f
        E 94 82 3a 00
        E 0 82 3e 00
        E 26 92 3a 5f
        E 0 92 3e 5f
        E 94 82 3a 00
        E 0 82 3e 00
        E 26 92 3a 5f
        E 0 92 3e 5f
        E 94 82 3a 00
        E 0 82 3e 00
        E 26 92 3a 5f
        E 0 92 3e 5f
        E 94 82 3a 00
        E 0 82 3e 00
        E 26 92 3a 5f
        E 0 92 3e 5f
        E 94 82 3a 00
        E 0 82 3e 00
        E 26 92 3a 5f
        E 0 92 3e 5f
        E 94 82 3a 00
        E 0 82 3e 00
        E 26 92 3a 5f
        E 0 92 3e 5f
        E 94 82 3a 00
        E 0 82 3e 00
        E 26 92 3a 5f
        E 0 92 3e 5f
        E 94 82 3a 00
        E 0 82 3e 00
        E 26 92 3a 5f
        E 0 92 3e 5f
        E 94 82 3a 00
        E 0 82 3e 00
        E 26 92 3a 5f
        E 0 92 3e 5f
        E 94 82 3a 00
        E 0 82 3e 00
        E 26 92 3a 5f
        E 0 92 3e 5f
        E 94 82 3a 00
        E 0 82 3e 00
        E 26 92 3a 5f
        E 0 92 3e 5f
        E 94 82 3a 00
        E 0 82 3e 00
        E 26 92 38 65
        E 960 82 38 00
        E 0 92 3c 56
        E 480 82 3c 00
        E 0 92 3e 50
        E 480 82 3e 00
        E 0 92 3f 4e
        E 94 82 3f 00
        E 26 92 3f 4e
        E 94 82 3f 00
        E 26 92 3f 4e
        E 94 82 3f 00
        E 26 92 3f 4e
        E 94 82 3f 00
        E 26 92 3f 4e
        E 94 82 3f 00
        E 26 92 3f 4e
        E 94 82 3f 00
        E 26 92 3f 4e
        E 94 82 3f 00
        E 26 92 3f 4e
        E 94 82 3f 00
        E 26 92 3f 4e
        E 94 82 3f 00
        E 26 92 3f 4e
        E 94 82 3f 00
        E 26 92 3f 4e
        E 94 82 3f 00
        E 26 92 3f 4e
        E 94 82 3f 00
        E 26 92 3f 4e
        E 94 82 3f 00
        E 26 92 3f 4e
        E 94 82 3f 00
        E 26 92 3f 4e
        E 94 82 3f 00
        E 26 92 3f 4e
        E 94 82 3f 00
        E 26 92 3f 4e
        E 94 82 3f 00
        E 26 92 3f 4e
        E 94 82 3f 00
        E 26 92 3f 4e
        E 94 82 3f 00
        E 26 92 3f 4e
        E 94 82 3f 00
        E 26 92 3f 4e
        E 94 82 3f 00
        E 26 92 3f 4e
        E 94 82 3f 00
        E 26 92 3f 4e
        E 94 82 3f 00
        E 26 92 3f 4e
        E 94 82 3f 00
        E 26 92 3f 4e
        E 94 82 3f 00
        E 26 92 3f 4e
        E 94 82 3f 00
        E 26 92 3f 4e
        E 94 82 3f 00
        E 26 92 3f 4e
        E 94 82 3f 00
        E 26 92 3f 4e
        E 94 82 3f 00
        E 26 92 3f 4e
        E 94 82 3f 00
        E 26 92 3f 4e
        E 94 82 3f 00
        E 26 92 3f 4e
        E 94 82 3f 00
        E 26 92 41 4b
        E 94 82 41 00
        E 26 92 41 4b
        E 94 82 41 00
        E 26 92 41 48
        E 94 82 41 00
        E 26 92 41 49
        E 94 82 41 00
        E 26 92 41 4a
        E 94 82 41 00
        E 26 92 41 4b
        E 94 82 41 00
        E 26 92 41 4b
        E 94 82 41 00
        E 26 92 41 4c
        E 94 82 41 00
        E 26 92 41 4d
        E 94 82 41 00
        E 26 92 41 4e
        E 94 82 41 00
        E 26 92 41 4f
        E 94 82 41 00
        E 26 92 41 50
        E 94 82 41 00
        E 26 92 41 50
        E 94 82 41 00
        E 26 92 41 51
        E 94 82 41 00
        E 26 92 41 52
        E 94 82 41 00
        E 26 92 41 53
        E 94 82 41 00
        E 26 92 41 54
        E 94 82 41 00
        E 26 92 41 54
        E 94 82 41 00
        E 26 92 41 55
        E 94 82 41 00
        E 26 92 41 56
        E 94 82 41 00
        E 26 92 41 57
        E 94 82 41 00
        E 26 92 41 58
        E 94 82 41 00
        E 26 92 41 59
        E 94 82 41 00
        E 26 92 41 59
        E 94 82 41 00
        E 26 92 41 5a
        E 94 82 41 00
        E 26 92 41 5b
        E 94 82 41 00
        E 26 92 41 5c
        E 94 82 41 00
        E 26 92 41 5d
        E 94 82 41 00
        E 26 92 41 5d
        E 94 82 41 00
        E 26 92 41 5e
        E 94 82 41 00
        E 26 92 41 5f
        E 94 82 41 00
        E 26 92 41 60
        E 94 82 41 00
        E 26 92 3f 68
        E 94 82 3f 00
        E 26 92 3f 68
        E 94 82 3f 00
        E 26 92 3f 68
        E 94 82 3f 00
        E 26 92 3f 68
        E 94 82 3f 00
        E 26 92 3f 68
        E 94 82 3f 00
        E 26 92 3f 68
        E 94 82 3f 00
        E 26 92 3f 68
        E 94 82 3f 00
        E 26 92 3f 68
        E 94 82 3f 00
        E 26 92 3f 68
        E 94 82 3f 00
        E 26 92 3f 68
        E 94 82 3f 00
        E 26 92 3f 68
        E 94 82 3f 00
        E 26 92 3f 68
        E 94 82 3f 00
        E 26 92 3f 68
        E 94 82 3f 00
        E 26 92 3f 68
        E 94 82 3f 00
        E 26 92 3f 68
        E 94 82 3f 00
        E 26 92 3f 68
        E 94 82 3f 00
        E 26 92 3f 66
        E 0 92 43 66
        E 1920 82 3f 00
        E 0 82 43 00
        E 0 92 41 67
        E 1920 82 41 00
        E 0 92 3e 65
        E 960 82 3e 00
        E 0 92 3d 3d
        E 960 82 3d 00
        E 0 92 3c 40
        E 1440 82 3c 00
        E 0 92 3e 3d
        E 480 82 3e 00
        E 0 92 3f 40
        E 1440 82 3f 00
        E 0 92 41 3e
        E 480 82 41 00
        E 0 92 3a 3d
        E 1440 82 3a 00
        E 0 92 3c 3d
        E 480 82 3c 00
        E 0 92 3e 41
        E 1440 82 3e 00
        E 0 92 3f 3d
        E 480 82 3f 00
        E 0 92 3c 3f
        E 480 82 3c 00
        E 0 92 3b 3b
        E 480 82 3b 00
        E 0 92 3c 3d
        E 480 82 3c 00
        E 0 92 3e 3f
        E 480 82 3e 00
        E 0 92 3f 42
        E 1920 82 3f 00
        E 0 92 41 41
        E 480 82 41 00
        E 0 92 3b 3a
        E 480 82 3b 00
        E 0 92 3e 3d
        E 480 82 3e 00
        E 0 92 38 38
        E 480 82 38 00
        E 0 92 3b 3f
        E 1920 82 3b 00
        E 0 92 38 78
        E 0 92 3a 78
        E 960 82 38 00
        E 0 82 3a 00
        E 0 92 38 72
        E 0 92 3c 72
        E 960 82 38 00
        E 0 82 3c 00
        E 0 92 3a 78
        E 0 92 3f 78
        E 1920 82 3a 00
        E 0 82 3f 00
        E 0 92 41 78
        E 480 82 41 00
        E 0 92 3b 6c
        E 480 82 3b 00
        E 0 92 3e 72
        E 480 82 3e 00
        E 0 92 38 68
        E 480 82 38 00
        E 0 92 3b 75
        E 1920 82 3b 00
        E 0 92 38 78
        E 0 92 3a 78
        E 960 82 38 00
        E 0 82 3a 00
        E 0 92 38 72
        E 0 92 3c 72
        E 960 82 38 00
        E 0 82 3c 00
        E 0 92 3a 78
        E 0 92 3f 78
        E 1920 82 3a 00
        E 0 82 3f 00
        E 0 92 41 78
        E 1920 82 41 00
        E 0 92 3e 75
        E 960 82 3e 00
        E 0 92 3d 3d
        E 960 82 3d 00
        E 0 92 3a 3f
        E 75 82 3a 00
        E 23 92 3c 3f
        E 75 82 3c 00
        E 22 92 3a 3f
        E 75 82 3a 00
        E 23 92 3c 3f
        E 75 82 3c 00
        E 18 92 3a 3f
        E 75 82 3a 00
        E 19 92 3c 3f
        E 75 82 3c 00
        E 19 92 3a 3f
        E 75 82 3a 00
        E 19 92 3c 3f
        E 75 82 3c 00
        E 18 92 3a 3f
        E 75 82 3a 00
        E 15 92 3c 3f
        E 72 82 3c 00
        E 18 92 3a 3f
        E 72 82 3a 00
        E 18 92 3c 3f
        E 72 82 3c 00
        E 18 92 3a 3f
        E 72 82 3a 00
        E 15 92 3c 3f
        E 67 82 3c 00
        E 19 92 3a 3f
        E 67 82 3a 00
        E 19 92 3c 3f
        E 68 82 3c 00
        E 18 92 3a 3f
        E 68 82 3a 00
        E 15 92 3c 3f
        E 64 82 3c 00
        E 18 92 3a 3f
        E 64 82 3a 00
        E 19 92 3c 3f
        E 64 82 3c 00
        E 18 92 3a 3f
        E 64 82 3a 00
        E 19 92 3c 3f
        E 64 82 3c 00
        E 15 92 3a 3f
        E 60 82 3a 00
        E 18 92 3c 3f
        E 60 82 3c 00
        E 19 92 3a 3f
        E 60 82 3a 00
        E 19 92 3c 3f
        E 60 82 3c 00
        E 19 92 3a 3f
        E 60 82 3a 00
        E 22 92 3c 3f
        E 64 82 3c 00
        E 19 92 3a 3f
        E 63 82 3a 00
        E 19 92 3c 3f
        E 64 82 3c 00
        E 19 92 3a 3f
        E 63 82 3a 00
        E 19 92 3c 3f
        E 64 82 3c 00
        E 22 92 3a 3f
        E 68 82 3a 00
        E 19 92 3c 3f
        E 67 82 3c 00
        E 19 92 3a 3f
        E 67 82 3a 00
        E 19 92 3c 3f
        E 68 82 3c 00
        E 22 92 3a 3f
        E 71 82 3a 00
        E 19 92 3c 3f
        E 71 82 3c 00
        E 19 92 3a 3f
        E 71 82 3a 00
        E 19 92 3c 3f
        E 71 82 3c 00
        E 23 92 3a 3f
        E 75 82 3a 00
        E 19 92 3c 3f
        E 75 82 3c 00
        E 18 92 3a 3f
        E 75 82 3a 00
        E 19 92 3c 3f
        E 71 82 3c 00
        E 4 92 3f 41
        E 3839 82 3f 00
        E 1 b0 7b 00
        CCINTERP 32
        CHASE_CC_TAKEOFFS 1
        GUID {16CACE7D-148A-8C45-8F65-D485F0DA721D}
        IGNTEMPO 0 120 4 4
        SRCCOLOR 82
        VELLANE -1 100 0
        CFGEDITVIEW 0 0.005959 59 12 0 -1 0 0 0 0.5
        KEYSNAP 0
        TRACKSEL -252
        EVTFILTER 0 -1 -1 -1 -1 0 0 0 0 -1 -1 -1 -1 0 -1 0 -1 -1
        CFGEDIT 1 1 0 1 0 4 1 1 1 1 1 0.25 253 78 1566 1057 0 0 0 0 0 0 0 0 0 0.5 0 0 1 64
      >
    >
  >
  <TRACK {D33E2799-76A7-7847-B6A1-717A60E8FEBD}
    NAME bass
    PEAKCOL 16576
    BEAT -1
    AUTOMODE 0
    VOLPAN 0.54156767745055 0 -1 -1 1
    MUTESOLO 0 0 0
    IPHASE 0
    PLAYOFFS 0 1
    ISBUS 0 0
    BUSCOMP 0 0 0 0 0
    SHOWINMIX 1 0.6667 0.5 1 0.5 0 0 0
    SEL 1
    REC 0 0 1 0 0 0 0 0
    VU 2
    TRACKHEIGHT 0 0 0 0 0 0
    INQ 0 0 0 0.5 100 0 0 100
    NCHAN 2
    FX 1
    TRACKID {D33E2799-76A7-7847-B6A1-717A60E8FEBD}
    PERF 0
    MIDIOUT -1
    MAINSEND 1 0
    <FXCHAIN
      WNDRECT 245 56 611 488
      SHOW 0
      LASTSEL 0
      DOCKED 0
      BYPASS 0 0 0
      <VST "VSTi: ReaSynth (Cockos)" reasynth.vst.dylib 0 "" 1919251321<5653547265737972656173796E746800> ""
        eXNlcu9e7f4AAAAAAgAAAAEAAAAAAAAAAgAAAAAAAABEAAAAAAAAAAAAEAA=
        776t3g3wrd6mm8Q7on4TPAAAgD8AAAAAAAAAAI9Rjz5LLmg7AAAAAAAAAD+Yf8k+7FE4PgAAAD8AAAAAAAAAAAAAAAA=
        AFByb2dyYW0gMQAQAAAA
      >
      FLOATPOS 0 0 0 0
      FXID {C7CD7F0C-6441-F440-8FDC-EEF60B5E4FBF}
      WAK 0 0
    >
    <ITEM
      POSITION 0
      SNAPOFFS 0
      LENGTH 116.571312
      LOOP 1
      ALLTAKES 0
      FADEIN 1 0 0 1 0 0 0
      FADEOUT 1 0 0 1 0 0 0
      MUTE 0 0
      SEL 1
      IGUID {F2654D6E-06AF-834D-A2B9-13476124B59D}
      IID 33
      NAME "Violoncello - nn.mid"
      VOLPAN 1 0 1 -1
      SOFFS 0 0
      PLAYRATE 1 1 0 -1 0 0.0025
      CHANMODE 0
      GUID {C5EDD11B-B0F8-F146-BD1C-1BF6733A2546}
      <SOURCE MIDI
        HASDATA 1 960 QN
        CCINTERP 32
        POOLEDEVTS {598BBB47-79D2-F243-906C-2CAF864A5A12}
        E 0 c3 30 00
        E 0 b3 40 00
        E 0 b3 5b 3c
        E 0 b3 0a 5f
        E 0 b3 07 5a
        E 0 b3 79 00
        E 23040 93 27 41
        E 1920 83 27 00
        E 0 93 33 46
        E 1920 83 33 00
        E 0 93 30 50
        E 960 93 32 52
        E 19 83 30 00
        E 941 93 33 5b
        E 19 83 32 00
        E 941 93 2e 5a
        E 19 83 33 00
        E 892 83 2e 00
        E 49 93 2c 66
        E 480 83 2c 00
        E 0 93 2e 62
        E 480 83 2e 00
        E 0 93 30 64
        E 480 83 30 00
        E 0 93 33 67
        E 480 83 33 00
        E 0 93 35 6d
        E 1920 83 35 00
        E 0 93 2e 67
        E 480 83 2e 00
        E 0 93 30 62
        E 480 83 30 00
        E 0 93 32 64
        E 480 83 32 00
        E 0 93 37 6b
        E 480 83 37 00
        E 0 93 35 68
        E 960 83 35 00
        E 0 93 2e 5e
        E 960 83 2e 00
        E 0 93 2c 66
        E 480 83 2c 00
        E 0 93 2e 62
        E 480 83 2e 00
        E 0 93 30 64
        E 480 83 30 00
        E 0 93 33 67
        E 480 83 33 00
        E 0 93 35 6d
        E 1920 83 35 00
        E 0 93 2e 67
        E 480 83 2e 00
        E 0 93 30 62
        E 480 83 30 00
        E 0 93 32 64
        E 480 83 32 00
        E 0 93 37 6b
        E 480 83 37 00
        E 0 93 35 68
        E 1920 83 35 00
        E 0 93 33 58
        E 1920 83 33 00
        E 0 93 32 57
        E 1920 83 32 00
        E 0 93 2e 58
        E 1920 83 2e 00
        E 0 93 29 57
        E 480 83 29 00
        E 0 93 2b 54
        E 480 83 2b 00
        E 0 93 2f 65
        E 960 83 2f 00
        E 0 93 30 6a
        E 3840 83 30 00
        E 0 93 2e 68
        E 1920 83 2e 00
        E 0 93 32 40
        E 960 83 32 00
        E 960 93 2c 67
        E 480 83 2c 00
        E 0 93 2e 62
        E 480 83 2e 00
        E 0 93 30 64
        E 480 83 30 00
        E 0 93 33 67
        E 480 83 33 00
        E 0 93 35 6c
        E 1920 83 35 00
        E 0 93 2e 67
        E 480 83 2e 00
        E 0 93 30 62
        E 480 83 30 00
        E 0 93 32 64
        E 480 83 32 00
        E 0 93 37 6b
        E 480 83 37 00
        E 0 93 35 68
        E 960 83 35 00
        E 0 93 2e 5e
        E 960 83 2e 00
        E 0 93 2c 66
        E 480 83 2c 00
        E 0 93 2e 62
        E 480 83 2e 00
        E 0 93 30 64
        E 480 83 30 00
        E 0 93 33 67
        E 480 83 33 00
        E 0 93 35 6c
        E 1920 83 35 00
        E 0 93 2e 67
        E 480 83 2e 00
        E 0 93 30 62
        E 480 83 30 00
        E 0 93 32 64
        E 480 83 32 00
        E 0 93 37 6b
        E 480 83 37 00
        E 0 93 35 68
        E 1920 83 35 00
        E 0 93 33 58
        E 1920 83 33 00
        E 0 93 32 57
        E 1920 83 32 00
        E 0 93 2e 58
        E 1920 83 2e 00
        E 0 93 29 57
        E 480 83 29 00
        E 0 93 2b 54
        E 480 83 2b 00
        E 0 93 2f 65
        E 960 83 2f 00
        E 0 93 30 6a
        E 3840 83 30 00
        E 0 93 2e 68
        E 1920 83 2e 00
        E 0 93 32 40
        E 960 83 32 00
        E 960 93 2c 40
        E 480 83 2c 00
        E 0 93 33 3f
        E 480 83 33 00
        E 0 93 37 42
        E 480 83 37 00
        E 0 93 3a 42
        E 480 83 3a 00
        E 0 93 38 41
        E 480 83 38 00
        E 0 93 37 3d
        E 480 83 37 00
        E 0 93 35 3b
        E 480 83 35 00
        E 0 93 33 3a
        E 480 83 33 00
        E 0 93 29 3b
        E 480 83 29 00
        E 0 93 30 3d
        E 480 83 30 00
        E 0 93 33 40
        E 480 83 33 00
        E 0 93 37 43
        E 480 83 37 00
        E 0 93 35 41
        E 480 83 35 00
        E 0 93 33 3c
        E 480 83 33 00
        E 0 93 32 3b
        E 480 83 32 00
        E 0 93 31 3b
        E 480 83 31 00
        E 0 93 30 3f
        E 480 83 30 00
        E 0 93 2f 3b
        E 480 83 2f 00
        E 0 93 30 3d
        E 480 83 30 00
        E 0 93 32 3f
        E 480 83 32 00
        E 0 93 33 41
        E 1920 83 33 00
        E 0 93 35 41
        E 480 83 35 00
        E 0 93 2f 3b
        E 480 83 2f 00
        E 0 93 32 3d
        E 480 83 32 00
        E 0 93 2c 3a
        E 480 83 2c 00
        E 0 93 2f 3f
        E 1920 83 2f 00
        E 0 93 2c 67
        E 1920 83 2c 00
        E 0 93 33 67
        E 1920 83 33 00
        E 0 93 35 68
        E 480 83 35 00
        E 0 93 2f 5f
        E 480 83 2f 00
        E 0 93 32 62
        E 480 83 32 00
        E 0 93 2c 5e
        E 480 83 2c 00
        E 0 93 2f 65
        E 1920 83 2f 00
        E 0 93 2c 67
        E 1920 83 2c 00
        E 0 93 33 67
        E 1920 83 33 00
        E 0 93 2e 67
        E 1920 83 2e 00
        E 0 93 32 40
        E 960 83 32 00
        E 960 93 33 41
        E 1920 83 33 00
        E 0 93 27 3f
        E 960 83 27 00
        E 0 93 2e 3e
        E 960 83 2e 00
        E 0 93 27 40
        E 3839 83 27 00
        E 1 b0 7b 00
        CCINTERP 32
        CHASE_CC_TAKEOFFS 1
        GUID {E1E2A9A1-CF07-D84F-95F4-D10B5759FD6B}
        IGNTEMPO 0 120 4 4
        SRCCOLOR 83
        VELLANE -1 100 0
        CFGEDITVIEW 0 0.005959 69 12 0 -1 0 0 0 0.5
        KEYSNAP 0
        TRACKSEL -252
        EVTFILTER 0 -1 -1 -1 -1 0 0 0 0 -1 -1 -1 -1 0 -1 0 -1 -1
        CFGEDIT 1 1 0 1 0 4 1 1 1 1 1 0.25 253 78 1566 1057 0 0 0 0 0 0 0 0 0 0.5 0 0 1 64
      >
    >
  >
>
