<svg xmlns="http://www.w3.org/2000/svg" viewBox="0 -0.5 16 16" shape-rendering="crispEdges">
<metadata>Made with Pixels to Svg https://codepen.io/shshaw/pen/XbxvNj</metadata>
<path stroke="rgba(0,0,0,0.00392156862745098)" d="M0 6h1M0 7h1M1 8h1" />
<path stroke="rgba(0,0,0,0.00784313725490196)" d="M1 7h1M5 10h1M0 12h1" />
<path stroke="#000000" d="M2 7h2M3 8h4M6 9h1M1 10h2M6 10h1M2 11h4M5 12h1M4 13h1M4 14h1M3 15h1" />
<path stroke="#272727" d="M2 8h1M1 11h1" />
<path stroke="rgba(0,0,0,0.023529411764705882)" d="M4 12h1" />
<path stroke="rgba(0,0,0,0.03137254901960784)" d="M3 14h1" />
</svg>