<svg xmlns="http://www.w3.org/2000/svg" viewBox="0 -0.5 16 16" shape-rendering="crispEdges">
<metadata>Made with Pixels to Svg https://codepen.io/shshaw/pen/XbxvNj</metadata>
<path stroke="#000000" d="M3 4h4M2 5h1M5 5h2M1 6h1M6 6h2M1 7h1M3 7h1M7 7h1M1 8h3M7 8h1M2 9h1M7 9h1M9 9h1M6 10h1M6 11h1M5 12h1M4 13h1" />
<path stroke="#020202" d="M7 5h1" />
<path stroke="#090909" d="M9 6h1" />
<path stroke="#272727" d="M4 7h1" />
<path stroke="#262626" d="M4 8h1M3 9h1" />
<path stroke="rgba(255,255,255,0.00392156862745098)" d="M4 12h1" />
</svg>